<svg width="469" height="264" viewBox="0 0 469 264" fill="none" xmlns="http://www.w3.org/2000/svg">
<path d="M226.164 116.755H213.556V133.055H196.046V116.755H154.293V104.672L190.838 55.4434H209.663L175.789 102.121H196.595V87.5944H213.556V102.121H226.181L226.164 116.755Z" fill="#EFF1F9"/>
<path d="M247.547 129.618C242.511 126.439 238.577 121.838 235.743 115.813C232.909 109.788 231.488 102.6 231.479 94.2494C231.479 85.8963 232.9 78.7073 235.743 72.6825C238.586 66.6577 242.52 62.0572 247.547 58.8809C252.566 55.7024 258.289 54.1131 264.714 54.1131C271.139 54.1131 276.861 55.7024 281.881 58.8809C286.9 62.0572 290.831 66.6577 293.674 72.6825C296.517 78.7073 297.939 85.8963 297.939 94.2494C297.939 102.603 296.517 109.79 293.674 115.813C290.831 121.835 286.9 126.437 281.881 129.618C276.845 132.799 271.123 134.388 264.714 134.386C258.305 134.383 252.582 132.794 247.547 129.618ZM275.831 113.094C278.523 109.031 279.87 102.748 279.872 94.2459C279.874 85.7439 278.527 79.4601 275.831 75.3947C273.132 71.3339 269.427 69.3023 264.714 69.3C260.06 69.3 256.388 71.3327 253.696 75.3981C251.004 79.4635 249.656 85.7473 249.652 94.2494C249.652 102.751 251 109.034 253.696 113.097C256.392 117.16 260.065 119.193 264.714 119.195C269.429 119.195 273.135 117.161 275.831 113.094Z" fill="#EFF1F9"/>
<path d="M377.672 116.755H365.047V133.055H347.537V116.755H305.784V104.672L342.329 55.4434H361.154L327.267 102.121H348.087V87.5944H365.03V102.121H377.672V116.755Z" fill="#EFF1F9"/>
<path d="M169.74 164.106C169.74 164.106 97.0995 108.996 95.4721 131.502C93.8446 154.007 96.5021 163.309 66.8857 164.302C29.297 165.564 0.219732 184.278 39.2676 202.579C110.613 236.012 145.61 227.532 166.018 222.571C193.234 215.958 171.247 250.504 187.566 236.665C214.566 213.812 207.981 253.688 265.246 218.381C296.644 199.031 279.203 185.969 226.603 177.622C202.769 173.834 169.74 164.106 169.74 164.106Z" fill="#EFF1F9"/>
<path d="M158.678 156.889L160.545 139.952L191.573 143.381C193.223 143.564 194.733 144.395 195.771 145.692C196.809 146.989 197.29 148.646 197.108 150.298L196.784 153.236C196.556 155.298 195.52 157.184 193.904 158.481C192.287 159.778 190.222 160.379 188.163 160.151L158.677 156.892L158.678 156.889Z" fill="url(#paint0_linear)"/>
<path d="M123.88 56.2616H139.443C149.467 56.2616 159.081 60.2482 166.169 67.3444C173.258 74.4407 177.241 84.0655 177.241 94.1016V201.094H87.5307V92.6544C87.5316 83.0027 91.3615 73.7466 98.1781 66.9218C104.995 60.097 114.24 56.2625 123.88 56.2616Z" fill="#EEB969"/>
<path d="M91.3795 54.7284C91.3795 54.7284 87.4792 62.1844 89.6113 66.7975C91.7434 71.4106 95.2832 76.7387 95.2832 76.7387L107.341 65.0237C107.341 65.0237 98.9947 66.2303 95.9939 62.8925C92.7975 59.345 91.3795 54.7284 91.3795 54.7284Z" fill="#EEB969"/>
<path d="M170.224 52.0094C170.224 52.0094 174.124 59.4687 172.012 64.0819C169.901 68.695 166.337 74.0197 166.337 74.0197L154.282 62.3047C154.282 62.3047 162.629 63.5147 165.63 60.1769C168.806 56.6259 170.224 52.0094 170.224 52.0094Z" fill="#EEB969"/>
<path d="M87.5307 118.594C87.5307 118.594 85.7556 128.669 83.984 131.512C82.2124 134.355 81.148 135.438 81.148 135.438C81.148 135.438 85.7556 132.966 87.5307 130.281C89.3057 127.597 87.5307 118.594 87.5307 118.594Z" fill="#EEB969"/>
<path d="M88.2379 127.129C88.2379 127.129 86.4663 137.204 84.6912 140.044C82.9162 142.883 81.8552 143.949 81.8552 143.949C81.8552 143.949 86.4663 141.481 88.2379 138.81C90.0095 136.139 88.2379 127.129 88.2379 127.129Z" fill="#EEB969"/>
<path d="M176.967 92.3347C176.967 92.3347 178.738 102.413 180.514 105.253C182.289 108.092 183.343 109.158 183.343 109.158C183.343 109.158 178.732 106.69 176.96 104.019C175.188 101.348 176.967 92.3347 176.967 92.3347Z" fill="#EEB969"/>
<path d="M176.256 100.856C176.256 100.856 178.031 110.932 179.803 113.774C181.574 116.617 182.656 117.679 182.656 117.679C182.656 117.679 178.048 115.208 176.273 112.523C174.498 109.838 176.256 100.856 176.256 100.856Z" fill="#EEB969"/>
<path d="M119.877 111.506C119.877 111.506 121.648 121.584 123.423 124.424C125.198 127.263 126.259 128.329 126.259 128.329C126.259 128.329 121.648 125.861 119.877 123.19C118.105 120.519 119.877 111.506 119.877 111.506Z" fill="url(#paint1_linear)"/>
<path d="M123.777 87.3641C123.777 87.3641 125.548 97.4428 127.324 100.282C129.099 103.122 130.16 104.187 130.16 104.187C130.16 104.187 125.549 101.719 123.777 99.0481C122.005 96.3772 123.777 87.3641 123.777 87.3641Z" fill="url(#paint2_linear)"/>
<path d="M167.391 196.711C167.391 196.711 169.166 206.79 170.938 209.629C172.709 212.468 173.774 213.534 173.774 213.534C173.774 213.534 169.166 211.063 167.391 208.378C165.616 205.693 167.391 196.711 167.391 196.711Z" fill="#EEB969"/>
<path d="M171.635 195.003C171.635 195.003 177.705 203.232 180.562 204.971C183.418 206.711 184.84 207.202 184.84 207.202C184.84 207.202 179.614 207.047 176.84 205.446C174.066 203.844 171.635 195.003 171.635 195.003Z" fill="#EEB969"/>
<path d="M123.646 55.8628C123.646 55.8628 133.85 55.3059 136.879 53.8828C139.907 52.4597 141.091 51.5281 141.091 51.5281C141.091 51.5281 138.091 55.8147 135.231 57.2585C132.371 58.7022 123.646 55.8628 123.646 55.8628Z" fill="#EEB969"/>
<path d="M132.01 57.585C132.01 57.585 142.214 57.0281 145.242 55.605C148.271 54.1819 149.455 53.2538 149.455 53.2538C149.455 53.2538 146.454 57.5403 143.594 58.9841C140.734 60.4278 132.01 57.585 132.01 57.585Z" fill="#EEB969"/>
<path d="M176.613 143.815C176.613 143.815 178.385 153.89 180.156 156.729C181.928 159.569 182.999 160.634 182.999 160.634C182.999 160.634 178.388 158.166 176.617 155.495C174.845 152.824 176.613 143.815 176.613 143.815Z" fill="#EEB969"/>
<path d="M174.337 191.672C174.337 191.672 180.407 199.904 183.264 201.64C186.12 203.376 187.542 203.875 187.542 203.875C187.542 203.875 182.316 203.717 179.542 202.118C176.768 200.52 174.337 191.672 174.337 191.672Z" fill="#EEB969"/>
<path d="M175.902 152.333C175.902 152.333 177.674 162.412 179.449 165.251C181.224 168.09 182.285 169.156 182.285 169.156C182.285 169.156 177.674 166.688 175.902 164.017C174.131 161.346 175.902 152.333 175.902 152.333Z" fill="#EEB969"/>
<path d="M98.8814 194.219C98.8814 194.219 97.1063 204.298 95.3347 207.137C93.5631 209.976 92.4953 211.062 92.4953 211.062C92.4953 211.062 97.1029 208.594 98.8779 205.906C100.653 203.218 98.8814 194.219 98.8814 194.219Z" fill="#EEB969"/>
<path d="M157.029 195.645C157.029 195.645 155.258 205.724 153.472 208.563C151.687 211.403 150.633 212.468 150.633 212.468C150.633 212.468 155.244 210 157.015 207.312C158.787 204.624 157.029 195.645 157.029 195.645Z" fill="#EEB969"/>
<path d="M88.2379 192.098C88.2379 192.098 86.4663 202.173 84.6912 205.013C82.9162 207.852 81.8552 208.918 81.8552 208.918C81.8552 208.918 86.4663 206.449 88.2379 203.761C90.0095 201.073 88.2379 192.098 88.2379 192.098Z" fill="#EEB969"/>
<path d="M104.55 194.219C104.55 194.219 102.778 204.298 101.003 207.137C99.2281 209.976 98.1672 211.062 98.1672 211.062C98.1672 211.062 102.778 208.594 104.55 205.906C106.322 203.218 104.55 194.219 104.55 194.219Z" fill="#EEB969"/>
<path d="M116.962 209.275C132.825 209.275 145.685 204.189 145.685 197.914C145.685 191.64 132.825 186.553 116.962 186.553C101.098 186.553 88.2379 191.64 88.2379 197.914C88.2379 204.189 101.098 209.275 116.962 209.275Z" fill="#EEB969"/>
<path opacity="0.4" d="M377.923 111.763L357.068 158.4H429.372L408.514 104.803L377.923 111.763Z" fill="#EFF1F9"/>
<path d="M149.582 209.275C165.446 209.275 178.306 204.189 178.306 197.914C178.306 191.64 165.446 186.553 149.582 186.553C133.719 186.553 120.858 191.64 120.858 197.914C120.858 204.189 133.719 209.275 149.582 209.275Z" fill="#EEB969"/>
<path d="M451.606 109.052C454.957 96.2204 433.883 79.5921 404.538 71.9116C375.192 64.2311 348.687 68.4069 345.337 81.2385C341.986 94.07 363.06 110.698 392.405 118.379C421.751 126.059 448.256 121.884 451.606 109.052Z" fill="#A7C9F2"/>
<path d="M451.188 109.313C448.4 119.711 391.656 69.0938 404.109 72.16C433.571 79.4063 454.621 96.4941 451.188 109.313Z" fill="#9EBFEA"/>
<path d="M394.255 111.306C365.508 103.782 344.437 88.8731 346.638 77.7631C346.583 77.9419 346.514 78.1069 346.466 78.2959C343.115 91.1281 364.038 107.718 393.201 115.349C422.364 122.98 448.716 118.766 452.067 105.937C452.115 105.755 452.139 105.569 452.176 105.387C448.664 116.157 422.993 118.831 394.255 111.306Z" fill="#7DA9D8"/>
<path d="M417.372 98.0169C411.985 98.0169 405.383 97.1334 398.43 95.3115C390.599 93.249 383.492 90.3512 378.414 87.1131C373.284 83.8441 370.833 80.6128 371.513 78.0175C372.886 72.7272 387.217 71.8781 403.443 76.1234C411.275 78.1859 418.382 81.0837 423.46 84.3219C428.589 87.5909 431.041 90.8222 430.361 93.4209L430.196 93.3762L430.361 93.4209C429.571 96.4425 424.555 98.0169 417.372 98.0169ZM384.357 73.7344C377.418 73.7344 372.597 75.2228 371.846 78.1034C371.207 80.5441 373.607 83.6412 378.599 86.8244C383.646 90.0419 390.719 92.9397 398.513 94.9781C414.553 99.1787 428.689 98.4397 430.024 93.3316C430.659 90.8909 428.26 87.7937 423.267 84.6106C418.22 81.3931 411.148 78.4987 403.354 76.4569C396.36 74.6247 389.723 73.7344 384.357 73.7344Z" fill="#7DA9D8"/>
<path opacity="0.53" d="M429.643 95.6381C433.914 79.2722 424.579 62.0503 408.233 57.7706C391.886 53.4909 375.355 62.3012 371.083 78.6672C371.083 78.6672 374.009 88.9797 397.606 94.9128C421.746 101.001 429.643 95.6381 429.643 95.6381Z" fill="#D1DCE5"/>
<path opacity="0.28" d="M354.287 99.7975L364.684 107.198L389.325 92.5512L382.369 89.4987L354.287 99.7975Z" fill="white"/>
<path opacity="0.53" d="M377.057 113.269L392.508 93.5825L394.427 94.0878L381.476 114.978L377.057 113.269Z" fill="white"/>
<path d="M393.218 173.016C413.184 173.016 429.368 166.317 429.368 158.053C429.368 149.789 413.184 143.089 393.218 143.089C373.253 143.089 357.068 149.789 357.068 158.053C357.068 166.317 373.253 173.016 393.218 173.016Z" fill="#EFF1F9"/>
<path d="M384.024 74.8172L388.381 77.3953C388.381 77.3953 390.351 70.0322 394.904 66.1547C401.369 60.6547 402.715 60.9984 402.715 60.9984C402.715 60.9984 397.16 60.2628 390.516 66.4366C385.274 71.3212 384.024 74.8172 384.024 74.8172Z" fill="white"/>
<path d="M64.9939 73.8478L68.2659 80.4856L75.5825 83.5278L68.8015 86.5494L65.1347 94.0122L61.4644 86.8313L54.4054 83.5278L61.7219 80.4856L64.9939 73.8478Z" fill="#EFF1F9"/>
<path d="M300.17 13.3306L302.629 18.315L308.125 20.6009L303.034 22.8697L300.277 28.4763L297.523 23.0828L292.219 20.6009L297.715 18.315L300.17 13.3306Z" fill="#A7C9F2"/>
<path d="M157.173 26.9362L158.801 30.2397L162.44 31.7522L159.069 33.2544L157.245 36.9669L155.419 33.3953L151.907 31.7522L155.546 30.2397L157.173 26.9362Z" fill="#A7C9F2"/>
<path d="M327.181 157.183L330.824 164.577L338.971 167.963L331.424 171.328L327.339 179.64L323.253 171.641L315.387 167.963L323.538 164.577L327.181 157.183Z" fill="#EFF1F9"/>
<path d="M437.681 143.629C441.61 143.629 444.795 140.44 444.795 136.507C444.795 132.573 441.61 129.384 437.681 129.384C433.752 129.384 430.567 132.573 430.567 136.507C430.567 140.44 433.752 143.629 437.681 143.629Z" fill="#EEB969"/>
<path d="M438.189 141.886C442.567 141.886 446.116 139.518 446.116 136.596C446.116 133.674 442.567 131.306 438.189 131.306C433.81 131.306 430.261 133.674 430.261 136.596C430.261 139.518 433.81 141.886 438.189 141.886Z" fill="#D8A35D"/>
<path d="M438.189 139.569C442.567 139.569 446.116 137.201 446.116 134.279C446.116 131.357 442.567 128.989 438.189 128.989C433.81 128.989 430.261 131.357 430.261 134.279C430.261 137.201 433.81 139.569 438.189 139.569Z" fill="#EDC798"/>
<path d="M438.189 135.603C440.925 135.603 443.143 134.122 443.143 132.296C443.143 130.469 440.925 128.989 438.189 128.989C435.453 128.989 433.234 130.469 433.234 132.296C433.234 134.122 435.453 135.603 438.189 135.603Z" fill="#EEB969"/>
<path d="M362.857 183.886L367.434 193.174L377.672 197.433L368.189 201.658L363.053 212.104L357.92 202.053L348.038 197.433L358.277 193.174L362.857 183.886Z" fill="#EFF1F9"/>
<path d="M248.409 143.918V161.535C248.409 161.717 248.336 161.892 248.207 162.021C248.079 162.15 247.904 162.223 247.722 162.223H227.431C227.249 162.223 227.074 162.15 226.945 162.021C226.816 161.892 226.744 161.717 226.744 161.535V143.918C226.744 143.736 226.816 143.561 226.945 143.432C227.074 143.303 227.249 143.23 227.431 143.23H247.732C247.913 143.233 248.085 143.307 248.211 143.435C248.338 143.564 248.409 143.737 248.409 143.918Z" fill="#EEB969"/>
<path d="M252.47 176.103L218.631 181.184V160.875H252.47V176.103Z" fill="#EEB969"/>
<path d="M232.842 148.662H226.751V145.949H232.842C233.024 145.949 233.198 146.022 233.327 146.151C233.456 146.28 233.528 146.455 233.528 146.637V147.995C233.523 148.173 233.448 148.343 233.32 148.468C233.192 148.592 233.02 148.662 232.842 148.662Z" fill="#BD0D22"/>
<path d="M196.341 155.158C199.916 154.267 202.421 151.967 201.937 150.021C201.453 148.076 198.163 147.222 194.588 148.114C191.013 149.006 188.507 151.306 188.991 153.251C189.475 155.196 192.766 156.05 196.341 155.158Z" fill="#E29C3E"/>
<path d="M197.254 146.11C199.243 144.806 200.17 142.699 199.323 141.405C198.476 140.11 196.177 140.118 194.188 141.423C192.199 142.727 191.273 144.834 192.119 146.128C192.966 147.422 195.265 147.414 197.254 146.11Z" fill="#E29C3E"/>
<path d="M231.489 173.054H218.631V164.921H231.489C231.671 164.921 231.846 164.993 231.975 165.122C232.103 165.251 232.176 165.426 232.176 165.608V172.384C232.171 172.563 232.097 172.734 231.969 172.859C231.84 172.984 231.668 173.054 231.489 173.054Z" fill="#BD0D22"/>
<path d="M258.156 151.033H210.212L209.117 146.637C209.041 146.322 208.855 146.045 208.592 145.856C208.329 145.666 208.008 145.578 207.685 145.606C207.643 145.602 207.601 145.602 207.558 145.606H196.946C196.587 145.606 196.243 145.748 195.989 146.002C195.735 146.256 195.593 146.601 195.593 146.96C195.593 147.319 195.735 147.664 195.989 147.918C196.243 148.172 196.587 148.314 196.946 148.314H206.745L207.833 152.67L213.158 180.812L210.58 188.557C210.523 188.726 210.501 188.904 210.513 189.082C210.526 189.259 210.573 189.433 210.652 189.592C210.813 189.914 211.094 190.159 211.435 190.273C211.775 190.386 212.147 190.36 212.468 190.2C212.79 190.039 213.034 189.758 213.148 189.417L215.551 182.236L258.338 176.78C258.663 176.735 258.962 176.575 259.179 176.328C259.396 176.081 259.518 175.765 259.523 175.436V167.31V152.388C259.523 152.209 259.487 152.032 259.418 151.866C259.349 151.701 259.249 151.551 259.122 151.425C258.994 151.299 258.844 151.2 258.678 151.133C258.512 151.065 258.335 151.032 258.156 151.033ZM210.775 153.742H221.46L222.147 160.215L212.066 160.511L210.775 153.742ZM212.568 163.209L222.425 162.917L223.074 169.104L213.845 169.94L212.568 163.209ZM215.658 179.475L214.356 172.617L223.366 171.803L224.052 178.276C224.055 178.319 224.062 178.361 224.073 178.403L215.658 179.475ZM224.2 153.742H234.878V153.821L235.221 159.83L224.859 160.136L224.2 153.742ZM225.154 162.838L235.393 162.535L235.709 167.963L225.79 168.86L225.154 162.838ZM226.747 178.062C226.749 178.04 226.749 178.017 226.747 177.994L226.061 171.559L235.873 170.672L236.237 176.859L226.747 178.062ZM237.59 153.742H247.063V159.5L237.944 159.768L237.59 153.742ZM238.102 162.456L247.063 162.192V166.939L238.411 167.719L238.102 162.456ZM238.929 176.512L238.586 170.428L247.08 169.658V175.426C247.078 175.442 247.078 175.458 247.08 175.474L238.929 176.512ZM256.817 174.23L249.779 175.127V169.414L256.817 168.781V174.23ZM256.817 166.055L249.779 166.691V162.112L256.817 161.906V166.055ZM256.817 159.18L249.779 159.387V153.742H256.817V159.18Z" fill="#7DA9D8"/>
<path d="M252.47 187.282V189.994C252.47 190.176 252.398 190.351 252.269 190.48C252.14 190.609 251.966 190.682 251.784 190.682H211.187C211.005 190.682 210.831 190.609 210.702 190.48C210.573 190.351 210.501 190.176 210.501 189.994V187.282C210.501 187.1 210.573 186.925 210.702 186.796C210.831 186.667 211.005 186.594 211.187 186.594H251.794C251.974 186.597 252.146 186.671 252.273 186.799C252.399 186.928 252.47 187.101 252.47 187.282ZM202.913 144.595H197.145C196.811 144.595 196.481 144.66 196.173 144.787C195.865 144.915 195.584 145.102 195.348 145.338C195.112 145.574 194.925 145.854 194.798 146.162C194.67 146.471 194.604 146.801 194.604 147.135C194.604 147.469 194.67 147.8 194.798 148.108C194.925 148.417 195.112 148.697 195.348 148.933C195.584 149.169 195.865 149.356 196.173 149.483C196.481 149.611 196.811 149.676 197.145 149.676H202.913C203.586 149.676 204.231 149.408 204.707 148.932C205.183 148.455 205.45 147.809 205.45 147.135C205.45 146.462 205.183 145.815 204.707 145.339C204.231 144.863 203.586 144.595 202.913 144.595Z" fill="#E35760"/>
<path d="M247.056 186.945V196.429C247.056 196.611 246.984 196.786 246.855 196.915C246.726 197.044 246.551 197.117 246.369 197.117H243.66C243.478 197.117 243.303 197.044 243.175 196.915C243.046 196.786 242.974 196.611 242.974 196.429V186.945C242.974 186.763 243.046 186.588 243.175 186.459C243.303 186.33 243.478 186.258 243.66 186.258H246.369C246.551 186.258 246.726 186.33 246.855 186.459C246.984 186.588 247.056 186.763 247.056 186.945ZM220.66 186.258H217.955C217.772 186.258 217.598 186.33 217.469 186.459C217.34 186.588 217.268 186.763 217.268 186.945V196.429C217.268 196.611 217.34 196.786 217.469 196.915C217.598 197.044 217.772 197.117 217.955 197.117H220.66C220.842 197.117 221.017 197.044 221.146 196.915C221.274 196.786 221.347 196.611 221.347 196.429V186.945C221.344 186.764 221.27 186.592 221.142 186.466C221.013 186.339 220.84 186.268 220.66 186.268V186.258Z" fill="#E35760"/>
<path d="M249.761 197.783C249.762 198.722 249.485 199.639 248.965 200.42C248.444 201.2 247.705 201.809 246.839 202.168C245.973 202.528 245.02 202.622 244.101 202.44C243.182 202.257 242.337 201.806 241.674 201.142C241.011 200.479 240.56 199.634 240.377 198.714C240.193 197.793 240.287 196.839 240.646 195.972C241.004 195.105 241.611 194.364 242.391 193.843C243.17 193.321 244.086 193.043 245.023 193.043C245.645 193.043 246.261 193.165 246.836 193.403C247.411 193.641 247.933 193.99 248.373 194.43C248.813 194.871 249.162 195.393 249.401 195.969C249.639 196.544 249.761 197.161 249.761 197.783ZM219.307 193.043C218.37 193.043 217.454 193.321 216.675 193.843C215.895 194.364 215.288 195.105 214.93 195.972C214.571 196.839 214.477 197.793 214.661 198.714C214.844 199.634 215.295 200.479 215.958 201.142C216.621 201.806 217.466 202.257 218.385 202.44C219.304 202.622 220.257 202.528 221.123 202.168C221.989 201.809 222.728 201.2 223.249 200.42C223.769 199.639 224.046 198.722 224.045 197.783C224.045 197.161 223.923 196.544 223.685 195.969C223.446 195.393 223.097 194.871 222.657 194.43C222.217 193.99 221.695 193.641 221.12 193.403C220.545 193.165 219.929 193.043 219.307 193.043Z" fill="#6FBC9A"/>
<path d="M247.732 197.783C247.733 198.32 247.575 198.845 247.277 199.291C246.98 199.738 246.557 200.086 246.062 200.292C245.567 200.497 245.023 200.552 244.497 200.447C243.971 200.343 243.488 200.085 243.109 199.706C242.73 199.327 242.471 198.843 242.367 198.317C242.262 197.791 242.315 197.246 242.52 196.75C242.725 196.254 243.072 195.83 243.518 195.532C243.963 195.234 244.487 195.075 245.023 195.075C245.741 195.075 246.43 195.36 246.938 195.868C247.445 196.376 247.731 197.065 247.732 197.783ZM219.307 195.075C218.771 195.075 218.247 195.234 217.802 195.532C217.356 195.83 217.009 196.254 216.804 196.75C216.599 197.246 216.546 197.791 216.651 198.317C216.755 198.843 217.014 199.327 217.393 199.706C217.772 200.085 218.255 200.343 218.781 200.447C219.307 200.552 219.851 200.497 220.346 200.292C220.841 200.086 221.264 199.738 221.561 199.291C221.859 198.845 222.017 198.32 222.016 197.783C222.016 197.427 221.946 197.075 221.81 196.746C221.674 196.417 221.474 196.118 221.223 195.867C220.971 195.615 220.672 195.416 220.344 195.28C220.015 195.144 219.663 195.074 219.307 195.075Z" fill="#424766"/>
<path d="M155.611 127.975C162.269 127.975 167.666 118.12 167.666 105.964C167.666 93.8084 162.269 83.9541 155.611 83.9541C148.954 83.9541 143.557 93.8084 143.557 105.964C143.557 118.12 148.954 127.975 155.611 127.975Z" fill="white"/>
<path d="M154.015 122.293C158.617 122.293 162.347 114.822 162.347 105.607C162.347 96.3917 158.617 88.9212 154.015 88.9212C149.413 88.9212 145.682 96.3917 145.682 105.607C145.682 114.822 149.413 122.293 154.015 122.293Z" fill="#6FBC9A"/>
<path d="M153.307 109.512C154.58 109.512 155.611 107.048 155.611 104.008C155.611 100.969 154.58 98.505 153.307 98.505C152.035 98.505 151.004 100.969 151.004 104.008C151.004 107.048 152.035 109.512 153.307 109.512Z" fill="#424766"/>
<path d="M158.272 104.187C158.957 104.187 159.512 103.074 159.512 101.702C159.512 100.329 158.957 99.2166 158.272 99.2166C157.588 99.2166 157.033 100.329 157.033 101.702C157.033 103.074 157.588 104.187 158.272 104.187Z" fill="white"/>
<path d="M143.478 109.165C143.478 109.165 142.767 86.9688 155.189 86.2503C167.611 85.5319 167.601 108.663 167.601 108.663C167.601 108.663 169.372 83.4109 155.542 82.3453C141.713 81.2797 143.478 109.165 143.478 109.165Z" fill="#E6EAEF"/>
<path d="M143.557 107.594C143.557 107.594 142.846 85.3875 155.258 84.6794C167.669 83.9713 167.669 107.092 167.669 107.092C167.669 107.092 169.441 81.84 155.611 80.7744C141.782 79.7088 143.557 107.594 143.557 107.594Z" fill="#E29C3E"/>
<path d="M158.626 157.441C160.291 157.441 161.64 154.341 161.64 150.518C161.64 146.694 160.291 143.595 158.626 143.595C156.961 143.595 155.611 146.694 155.611 150.518C155.611 154.341 156.961 157.441 158.626 157.441Z" fill="#424766"/>
<defs>
<linearGradient id="paint0_linear" x1="166.161" y1="148.866" x2="188.264" y2="152.416" gradientUnits="userSpaceOnUse">
<stop stop-color="#EEB969"/>
<stop offset="1" stop-color="#E29C3E"/>
</linearGradient>
<linearGradient id="paint1_linear" x1="119.087" y1="119.917" x2="126.259" y2="119.917" gradientUnits="userSpaceOnUse">
<stop stop-color="#EEB969"/>
<stop offset="1" stop-color="#F7931E"/>
</linearGradient>
<linearGradient id="paint2_linear" x1="2691.43" y1="4774.62" x2="2841.14" y2="4774.62" gradientUnits="userSpaceOnUse">
<stop stop-color="#EEB969"/>
<stop offset="1" stop-color="#F7931E"/>
</linearGradient>
</defs>
</svg>
