<svg width="20" height="20" viewBox="0 0 20 20" xmlns="http://www.w3.org/2000/svg">
<path d="M18.7491 10.2885C18.743 10.21 18.7076 10.1367 18.6498 10.0832C18.5921 10.0297 18.5162 10 18.4375 10H13.9535L13.7496 5.92188C13.7456 5.8418 13.711 5.76633 13.6529 5.71108C13.5948 5.65582 13.5177 5.625 13.4375 5.625H11.25V4.0625C11.2502 3.61252 11.1423 3.16906 10.9355 2.76941C10.7287 2.36976 10.429 2.02558 10.0615 1.76581C9.69411 1.50603 9.26969 1.33825 8.82395 1.27655C8.37821 1.21486 7.92418 1.26105 7.5 1.41125C7.07582 1.26105 6.62178 1.21486 6.17604 1.27655C5.7303 1.33825 5.30588 1.50603 4.93845 1.76581C4.57102 2.02558 4.27131 2.36976 4.0645 2.76941C3.8577 3.16906 3.74984 3.61252 3.75 4.0625V5.625H1.5625C1.48232 5.625 1.40522 5.65582 1.34712 5.71108C1.28903 5.76633 1.2544 5.8418 1.25039 5.92188L0.625391 18.4219C0.623273 18.4642 0.629776 18.5065 0.644505 18.5462C0.659234 18.5859 0.681882 18.6222 0.711072 18.6529C0.740263 18.6836 0.775387 18.708 0.814311 18.7247C0.853235 18.7414 0.895146 18.75 0.9375 18.75H19.0625C19.1056 18.75 19.1481 18.7411 19.1876 18.7239C19.2271 18.7066 19.2625 18.6814 19.2918 18.6498C19.3211 18.6182 19.3435 18.5809 19.3576 18.5403C19.3718 18.4996 19.3774 18.4565 19.3741 18.4135L18.7491 10.2885ZM17.8125 17.1259L18.4786 18.125H17.1466L17.8125 17.1259ZM18.6592 17.2692L18.1157 16.4539L17.5328 10.625H18.1481L18.6592 17.2692ZM16.9047 10.625L17.4906 16.4823L16.8047 17.5109L16.275 10.625H16.9047ZM13.3277 10H12.7396L12.5189 6.25H13.14L13.3277 10ZM11.8928 6.25L12.1135 10H11.4533L11.2658 6.25H11.8928ZM8.4375 1.875C9.01745 1.87567 9.57347 2.10635 9.98356 2.51644C10.3937 2.92653 10.6243 3.48255 10.625 4.0625V5.625H9.375V4.0625C9.375 3.64351 9.28123 3.22983 9.10058 2.85179C8.91993 2.47374 8.65697 2.14091 8.33097 1.8777C8.36629 1.87602 8.40175 1.875 8.4375 1.875ZM7.5 2.08649C7.87374 2.26413 8.18952 2.54402 8.41075 2.89374C8.63197 3.24345 8.7496 3.64869 8.75 4.0625V5.625H6.25V4.0625C6.2504 3.64869 6.36802 3.24345 6.58925 2.89374C6.81047 2.54402 7.12625 2.26413 7.5 2.08649ZM4.375 4.0625C4.37566 3.48255 4.60634 2.92653 5.01643 2.51644C5.42653 2.10635 5.98254 1.87567 6.5625 1.875C6.59824 1.875 6.63371 1.87602 6.66902 1.8777C6.34302 2.14091 6.08005 2.47373 5.8994 2.85178C5.71875 3.22983 5.62499 3.64351 5.625 4.0625V5.625H4.375V4.0625ZM8.14812 18.125H1.26602L1.85977 6.25H3.75V8.27028L2.95164 8.8025C2.90884 8.83104 2.87375 8.8697 2.84947 8.91506C2.8252 8.96042 2.8125 9.01106 2.8125 9.0625V11.5625C2.8125 11.6454 2.84542 11.7249 2.90403 11.7835C2.96263 11.8421 3.04212 11.875 3.125 11.875H5C5.08288 11.875 5.16236 11.8421 5.22097 11.7835C5.27957 11.7249 5.3125 11.6454 5.3125 11.5625V9.0625C5.3125 9.01106 5.2998 8.96042 5.27552 8.91506C5.25125 8.8697 5.21616 8.83104 5.17336 8.8025L4.375 8.27028V6.25H8.75V7.1875C8.75 7.27038 8.78292 7.34987 8.84153 7.40848C8.90013 7.46708 8.97962 7.5 9.0625 7.5C9.14538 7.5 9.22486 7.46708 9.28347 7.40848C9.34207 7.34987 9.375 7.27038 9.375 7.1875V6.25H10.6402L10.8277 10H9.0625C8.98376 10 8.90793 10.0297 8.85016 10.0832C8.79239 10.1367 8.75694 10.21 8.75089 10.2885L8.14812 18.125ZM4.0625 8.81309L4.6875 9.22973V11.25H3.4375V9.22973L4.0625 8.81309ZM9.35187 10.625H15.6481L16.225 18.125H8.77496L9.35187 10.625Z" />
<path d="M14.0625 11.875C13.9796 11.875 13.9001 11.9079 13.8415 11.9665C13.7829 12.0251 13.75 12.1046 13.75 12.1875V14.6875C13.7497 14.9361 13.6509 15.1743 13.4751 15.3501C13.2993 15.5259 13.0611 15.6247 12.8125 15.625H12.1875C11.9389 15.6247 11.7007 15.5259 11.5249 15.3501C11.3491 15.1743 11.2503 14.9361 11.25 14.6875V12.1875C11.25 12.1046 11.2171 12.0251 11.1585 11.9665C11.0999 11.9079 11.0204 11.875 10.9375 11.875C10.8546 11.875 10.7751 11.9079 10.7165 11.9665C10.6579 12.0251 10.625 12.1046 10.625 12.1875V14.6875C10.6255 15.1018 10.7902 15.4989 11.0832 15.7918C11.3761 16.0848 11.7732 16.2495 12.1875 16.25H12.8125C13.2268 16.2495 13.6239 16.0848 13.9168 15.7918C14.2098 15.4989 14.3745 15.1018 14.375 14.6875V12.1875C14.375 12.1046 14.3421 12.0251 14.2835 11.9665C14.2249 11.9079 14.1454 11.875 14.0625 11.875Z" />
</svg>
