<svg width="20" height="20" viewBox="0 0 20 20" xmlns="http://www.w3.org/2000/svg">
<path d="M1.77337 9.45141L12.6277 3.61626L12.4023 4.54051C12.3639 4.6977 12.4603 4.85622 12.6175 4.89454C12.7736 4.9327 12.9329 4.83751 12.9715 4.67934L13.3528 3.11626C13.3913 2.95887 13.293 2.80012 13.1376 2.76223L11.5745 2.38094C11.4173 2.34251 11.2588 2.43891 11.2205 2.59614C11.1821 2.75333 11.2785 2.91184 11.4357 2.95016L12.2567 3.15044L1.49595 8.93532C1.35345 9.01192 1.30001 9.18958 1.37661 9.33208C1.4536 9.47532 1.63161 9.52766 1.77337 9.45141Z" />
<path d="M18.9491 17.0911H18.2197V5.68633C18.2197 5.29781 17.9036 4.98172 17.5151 4.98172H16.3299V3.44332H18.8311C19.0134 3.44332 19.1746 3.34062 19.2517 3.17535C19.3287 3.01008 19.3037 2.82058 19.1865 2.6809L18.72 2.12519L19.1865 1.56949C19.3037 1.4298 19.3287 1.24031 19.2517 1.07504C19.1746 0.909763 19.0134 0.807068 18.8311 0.807068H16.0369C15.8751 0.807068 15.7439 0.93824 15.7439 1.10004V4.98168H14.5587C14.1702 4.98168 13.8541 5.29777 13.8541 5.68629V6.3216C13.8541 6.4834 13.9853 6.61457 14.1471 6.61457C14.3089 6.61457 14.44 6.4834 14.44 6.3216V5.68633C14.44 5.6209 14.4933 5.56765 14.5587 5.56765H17.5151C17.5805 5.56765 17.6338 5.6209 17.6338 5.68633V17.0911H14.4401V7.69855C14.4401 7.53675 14.3089 7.40558 14.1471 7.40558C13.9853 7.40558 13.8541 7.53675 13.8541 7.69855V17.0911H12.1828V9.78508C12.1828 9.39656 11.8667 9.08047 11.4782 9.08047H8.5218C8.13328 9.08047 7.81719 9.39656 7.81719 9.78508V17.0911H6.14586V13.3821C6.14586 12.9936 5.82977 12.6775 5.44125 12.6775H2.48488C2.09637 12.6775 1.78027 12.9936 1.78027 13.3821V14.0234C1.78027 14.1852 1.91145 14.3164 2.07324 14.3164C2.23504 14.3164 2.36621 14.1852 2.36621 14.0234V13.3821C2.36621 13.3167 2.41945 13.2635 2.48488 13.2635H5.44129C5.50672 13.2635 5.55996 13.3167 5.55996 13.3821V17.0911H2.36621V15.3873C2.36621 15.2255 2.23504 15.0944 2.07324 15.0944C1.91145 15.0944 1.78027 15.2255 1.78027 15.3873V17.0911H1.0509C0.471406 17.0911 0 17.5625 0 18.142C0 18.7215 0.471406 19.1929 1.0509 19.1929H18.9491C19.5286 19.1929 20 18.7215 20 18.142C20 17.5625 19.5286 17.0911 18.9491 17.0911ZM18.2055 2.42359L18.5696 2.85738H16.3299V1.39304H18.5696L18.2055 1.82687C18.0603 1.99976 18.0604 2.25074 18.2055 2.42359ZM8.40316 9.78508C8.40316 9.71965 8.45641 9.6664 8.52184 9.6664H11.4782C11.5437 9.6664 11.5969 9.71965 11.5969 9.78508V17.0911H8.4032V9.78508H8.40316ZM18.9491 18.6069H1.0509C0.794531 18.6069 0.585938 18.3984 0.585938 18.142C0.585938 17.8856 0.794492 17.677 1.0509 17.677H18.9491C19.2055 17.677 19.4141 17.8856 19.4141 18.142C19.4141 18.3984 19.2055 18.6069 18.9491 18.6069Z" />
</svg>
