<svg width="20" height="20" viewBox="0 0 20 20" xmlns="http://www.w3.org/2000/svg">
<path d="M17.1844 14.6094C17.7531 14.2125 18.125 13.5563 18.125 12.8125C18.125 11.6063 17.1438 10.625 15.9375 10.625C14.7313 10.625 13.75 11.6063 13.75 12.8125C13.75 13.5563 14.1219 14.2125 14.6906 14.6094C13.4094 15.1094 12.5 16.3562 12.5 17.8125V19.0625C12.5 19.2344 12.6406 19.375 12.8125 19.375H19.0625C19.2344 19.375 19.375 19.2344 19.375 19.0625V17.8125C19.375 16.3562 18.4656 15.1094 17.1844 14.6094ZM14.375 12.8125C14.375 11.95 15.075 11.25 15.9375 11.25C16.8 11.25 17.5 11.95 17.5 12.8125C17.5 13.675 16.8 14.375 15.9375 14.375C15.075 14.375 14.375 13.675 14.375 12.8125ZM18.75 18.75H13.125V17.8125C13.125 16.2625 14.3875 15 15.9375 15C17.4875 15 18.75 16.2625 18.75 17.8125V18.75Z"/>
<path d="M5.30937 14.6094C5.87812 14.2125 6.25 13.5563 6.25 12.8125H7.1875V12.1875H6.15937C5.89062 11.2844 5.05312 10.625 4.0625 10.625C2.85625 10.625 1.875 11.6063 1.875 12.8125C1.875 13.5563 2.24688 14.2125 2.81563 14.6094C1.53438 15.1094 0.625 16.3562 0.625 17.8125V19.0625C0.625 19.2344 0.765625 19.375 0.9375 19.375H7.1875C7.35938 19.375 7.5 19.2344 7.5 19.0625V17.8125C7.5 16.3562 6.59062 15.1094 5.30937 14.6094ZM4.0625 11.25C4.70312 11.25 5.25313 11.6375 5.49687 12.1875H2.62812C2.87188 11.6375 3.42188 11.25 4.0625 11.25ZM2.5 12.8125H5.625C5.625 13.1656 5.50938 13.4906 5.3125 13.75C4.96875 13.75 4.6875 13.4688 4.6875 13.125H4.0625C4.0625 13.6031 4.32812 14.0156 4.725 14.2281C4.525 14.3219 4.3 14.375 4.0625 14.375C3.2 14.375 2.5 13.675 2.5 12.8125ZM6.875 18.75H1.25V17.8125C1.25 16.2625 2.5125 15 4.0625 15C5.6125 15 6.875 16.2625 6.875 17.8125V18.75Z"/>
<path d="M15.625 15.625H16.25V16.25H15.625V15.625Z"/>
<path d="M15.625 16.875H16.25V17.5H15.625V16.875Z"/>
<path d="M14.6219 5.12187L13.95 4.25312L14.1 3.16563C14.1187 3.025 14.0406 2.8875 13.9062 2.83437L12.8906 2.42188L12.4781 1.40625C12.425 1.27188 12.2875 1.19688 12.1469 1.2125L11.0594 1.3625L10.1906 0.690625C10.0781 0.603125 9.92187 0.603125 9.80937 0.690625L8.94063 1.3625L7.85312 1.2125C7.7125 1.19375 7.575 1.27188 7.52187 1.40625L7.10938 2.42188L6.09375 2.83437C5.95938 2.8875 5.88125 3.025 5.9 3.16563L6.05 4.25312L5.37812 5.12187C5.29063 5.23438 5.29063 5.39062 5.37812 5.50313L6.05 6.37187L5.9 7.45938C5.88125 7.6 5.95938 7.7375 6.09375 7.79063L6.98125 8.15L5.69062 9.80937C5.625 9.89375 5.60625 10.0062 5.64375 10.1094C5.68125 10.2094 5.76875 10.2844 5.875 10.3062L7.34688 10.6L8.21563 11.4719C8.275 11.5312 8.35625 11.5625 8.4375 11.5625C8.46563 11.5625 8.49063 11.5594 8.51875 11.5531C8.625 11.525 8.70937 11.4406 8.7375 11.3312L9.2375 9.49375L9.80937 9.93438C9.86562 9.97813 9.93125 10 10 10C10.0687 10 10.1344 9.97813 10.1906 9.93438L10.7625 9.49375L11.2625 11.3312C11.2906 11.4406 11.375 11.525 11.4812 11.5531C11.5094 11.5594 11.5344 11.5625 11.5625 11.5625C11.6437 11.5625 11.725 11.5312 11.7844 11.4719L12.6531 10.6L14.125 10.3062C14.2312 10.2844 14.3187 10.2094 14.3562 10.1094C14.3937 10.0062 14.375 9.89375 14.3094 9.80937L13.0187 8.15L13.9062 7.79063C14.0406 7.7375 14.1187 7.6 14.1 7.45938L13.95 6.37187L14.6219 5.50313C14.7094 5.39062 14.7094 5.23438 14.6219 5.12187ZM8.27813 10.6469L7.72187 10.0906C7.67812 10.0469 7.62188 10.0188 7.5625 10.0063L6.49375 9.79375L7.32188 8.72812L7.52187 9.21875C7.575 9.35312 7.7125 9.43125 7.85312 9.4125L8.64687 9.30313L8.27813 10.6469ZM13.5062 9.79375L12.4375 10.0063C12.3781 10.0188 12.3219 10.0469 12.2781 10.0906L11.7219 10.6469L11.3531 9.30313L12.1469 9.4125C12.2875 9.42813 12.4219 9.35312 12.4781 9.21875L12.6781 8.72812L13.5062 9.79375ZM13.375 6.09375C13.325 6.15938 13.3031 6.24375 13.3125 6.325L13.4469 7.30313L12.5344 7.675C12.4562 7.70625 12.3937 7.76875 12.3625 7.84688L11.9906 8.75938L11.0125 8.625C10.9313 8.61562 10.8469 8.6375 10.7812 8.6875L10 9.29375L9.21875 8.6875C9.16562 8.64687 9.09687 8.62187 9.02812 8.62187C9.01562 8.62187 9 8.625 8.9875 8.625L8.00937 8.75938L7.6375 7.84688C7.60625 7.76875 7.54375 7.70625 7.46562 7.675L6.55313 7.30313L6.6875 6.325C6.69688 6.24375 6.675 6.15938 6.625 6.09375L6.01875 5.3125L6.625 4.53125C6.675 4.46563 6.69688 4.38125 6.6875 4.3L6.55313 3.32188L7.46562 2.95C7.54375 2.91875 7.60625 2.85625 7.6375 2.77813L8.00937 1.86562L8.9875 2C9.06875 2.00937 9.15313 1.9875 9.21875 1.9375L10 1.33125L10.7812 1.9375C10.8469 1.9875 10.9313 2.00937 11.0125 2L11.9906 1.86562L12.3625 2.77813C12.3937 2.85625 12.4562 2.91875 12.5344 2.95L13.4469 3.32188L13.3125 4.3C13.3031 4.38125 13.325 4.46563 13.375 4.53125L13.9812 5.3125L13.375 6.09375Z"/>
<path d="M10 7.8125C8.62156 7.8125 7.5 6.69094 7.5 5.3125C7.5 3.93406 8.62156 2.8125 10 2.8125C11.3784 2.8125 12.5 3.93406 12.5 5.3125C12.5 6.69094 11.3784 7.8125 10 7.8125ZM10 3.4375C8.96594 3.4375 8.125 4.27844 8.125 5.3125C8.125 6.34656 8.96594 7.1875 10 7.1875C11.0341 7.1875 11.875 6.34656 11.875 5.3125C11.875 4.27844 11.0341 3.4375 10 3.4375Z"/>
</svg>
