<svg width="20" height="20" viewBox="0 0 20 20" xmlns="http://www.w3.org/2000/svg">
<path d="M19.2813 13.5514L19.048 12.4696C19.0404 12.4344 19.026 12.4012 19.0056 12.3716C18.9851 12.3421 18.9591 12.3169 18.9289 12.2974C18.8987 12.2779 18.865 12.2646 18.8297 12.2581C18.7943 12.2517 18.7581 12.2523 18.723 12.2599L17.6928 12.4821L15.8505 3.93752C15.8351 3.86669 15.7923 3.80485 15.7314 3.76557C15.6705 3.72628 15.5965 3.71277 15.5256 3.72799L10.0469 4.90924L6.98094 5.57049L5.97969 0.927833C5.96648 0.866737 5.93275 0.812006 5.88411 0.772747C5.83547 0.733488 5.77486 0.712068 5.71235 0.712051H0.985474C0.94956 0.712031 0.913994 0.71909 0.880809 0.732824C0.847625 0.746558 0.817473 0.766699 0.792078 0.792094C0.766683 0.817489 0.746543 0.84764 0.732809 0.880825C0.719074 0.914009 0.712016 0.949575 0.712036 0.985489V2.09221C0.712036 2.16473 0.740845 2.23428 0.792124 2.28556C0.843404 2.33684 0.912954 2.36565 0.985474 2.36565H4.59813L6.87047 12.9025C6.27515 13.0839 5.74409 13.4317 5.33991 13.9049C4.93572 14.3781 4.67526 14.957 4.58924 15.5734C4.50322 16.1897 4.59522 16.8178 4.85439 17.3836C5.11357 17.9494 5.52911 18.4293 6.05203 18.7667C6.57495 19.1042 7.18345 19.285 7.80577 19.288C8.4281 19.291 9.03831 19.116 9.56446 18.7837C10.0906 18.4513 10.5108 17.9754 10.7754 17.4122C11.04 16.8489 11.138 16.2217 11.058 15.6046L19.0716 13.8763C19.1424 13.861 19.2044 13.8182 19.2437 13.7573C19.283 13.6964 19.2965 13.6223 19.2813 13.5514ZM8.54954 12.8438L7.57813 8.34158L10.3769 7.73799L10.7877 9.64065C10.7989 9.69301 10.8253 9.74092 10.8635 9.7784C10.9018 9.81588 10.9502 9.84128 11.0028 9.85143C11.02 9.85478 11.0374 9.85645 11.0548 9.85643C11.0996 9.85642 11.1436 9.84544 11.1831 9.82447C11.2226 9.8035 11.2564 9.77316 11.2814 9.73612L12.0167 8.64861L13.0469 9.34611C13.0921 9.37668 13.1453 9.39303 13.1999 9.39307C13.2544 9.39312 13.3077 9.37685 13.353 9.34636C13.3982 9.31587 13.4333 9.27255 13.4537 9.22197C13.4741 9.17139 13.4789 9.11586 13.4675 9.06252L13.0572 7.15986L15.8559 6.55627L17.1589 12.5974L10.4203 14.0505C9.9564 13.4425 9.2947 13.0157 8.54954 12.8438ZM12.0403 5.03877L12.465 7.00752L12.7892 8.51065L12.0967 8.0419C12.0366 8.00126 11.9629 7.98615 11.8916 7.99989C11.8204 8.01363 11.7575 8.0551 11.7169 8.11518L11.1875 8.89877L10.4295 5.38611L12.0403 5.03877ZM15.7406 6.02174L12.9419 6.62502L12.5748 4.92346L15.3736 4.31986L15.7406 6.02174ZM9.89501 5.50143L10.262 7.20315L7.46329 7.80705L7.09626 6.10502L9.89501 5.50143ZM4.81876 1.81877H1.25891V1.25893H5.49157L6.50391 5.95315L7.97266 12.7644C7.783 12.7552 7.59289 12.7627 7.40454 12.7867L5.0861 2.03455C5.07292 1.97344 5.03919 1.91869 4.99055 1.87943C4.9419 1.84017 4.88127 1.81876 4.81876 1.81877ZM8.39688 18.6796C7.87122 18.7932 7.32365 18.7484 6.82345 18.5509C6.32324 18.3533 5.89287 18.0118 5.58677 17.5696C5.28068 17.1274 5.11261 16.6043 5.10383 16.0666C5.09505 15.5289 5.24596 15.0006 5.53746 14.5486C5.82895 14.0967 6.24795 13.7413 6.74144 13.5275C7.23493 13.3137 7.78074 13.2511 8.30983 13.3476C8.83892 13.444 9.32752 13.6952 9.71382 14.0694C10.1001 14.4436 10.3668 14.924 10.48 15.4497C10.631 16.1543 10.4964 16.89 10.1058 17.4954C9.71512 18.1009 9.10028 18.5268 8.3961 18.6796H8.39688ZM10.9438 15.0702C10.888 14.8887 10.8164 14.7124 10.7298 14.5435L18.5719 12.8522L18.69 13.3991L10.9438 15.0702Z"/>
</svg>
