<svg width="15" height="19" viewBox="0 0 15 19" fill="none" xmlns="http://www.w3.org/2000/svg">
<path d="M7.4386 0.00190167C5.46576 0.00190167 3.57372 0.802534 2.17871 2.22767C0.783707 3.6528 0 5.5857 0 7.60114V19H3.7193V14.1802C4.70742 14.7631 5.81356 15.1059 6.95213 15.1822C8.0907 15.2585 9.23119 15.0661 10.2854 14.6201C11.3395 14.1741 12.2791 13.4862 13.0315 12.6099C13.7838 11.7335 14.3287 10.692 14.6241 9.56609C14.9194 8.44015 14.9572 7.2599 14.7346 6.11664C14.512 4.97338 14.0349 3.89776 13.3403 2.97299C12.6456 2.04823 11.7521 1.29911 10.7287 0.783585C9.70535 0.26806 8.57961 -5.12775e-05 7.4386 7.356e-09V0.00190167ZM7.4386 11.4008C6.70167 11.4072 5.97951 11.1898 5.36373 10.7762C4.74795 10.3626 4.26631 9.77141 3.97995 9.07771C3.6936 8.38401 3.61542 7.61904 3.75534 6.87987C3.89526 6.1407 4.24697 5.46065 4.76584 4.92603C5.28472 4.39141 5.94736 4.02631 6.66968 3.87707C7.392 3.72782 8.14145 3.80116 8.8229 4.08777C9.50436 4.37438 10.0871 4.86134 10.4972 5.48687C10.9073 6.11239 11.1263 6.84828 11.1263 7.60114C11.1302 8.60451 10.744 9.56841 10.0525 10.2809C9.36094 10.9934 8.42075 11.3962 7.4386 11.4008Z" fill="#BD0D22"/>
</svg>
