<svg width="41" height="31" viewBox="0 0 41 31" xmlns="http://www.w3.org/2000/svg">
<path d="M6.23947 25.5294C5.74722 25.5294 5.34814 25.1212 5.34814 24.6177V6.38238C5.34814 5.87882 5.74722 5.47058 6.23947 5.47058C6.73172 5.47058 7.1308 5.87882 7.1308 6.38238V24.6177C7.13072 25.1212 6.73172 25.5294 6.23947 25.5294Z" />
<path d="M9.80442 21.8824C9.31217 21.8824 8.91309 21.4741 8.91309 20.9706V6.38238C8.91309 5.87882 9.31217 5.47058 9.80442 5.47058C10.2967 5.47058 10.6957 5.87882 10.6957 6.38238V20.9706C10.6957 21.4741 10.2967 21.8824 9.80442 21.8824Z" />
<path d="M13.3694 21.8824C12.8771 21.8824 12.478 21.4741 12.478 20.9706V6.38238C12.478 5.87882 12.8771 5.47058 13.3694 5.47058C13.8616 5.47058 14.2607 5.87882 14.2607 6.38238V20.9706C14.2607 21.4741 13.8616 21.8824 13.3694 21.8824Z" />
<path d="M16.9348 21.8824C16.4425 21.8824 16.0435 21.4741 16.0435 20.9706V6.38238C16.0435 5.87882 16.4425 5.47058 16.9348 5.47058C17.427 5.47058 17.8261 5.87882 17.8261 6.38238V20.9706C17.826 21.4741 17.427 21.8824 16.9348 21.8824Z" />
<path d="M20.4997 25.5294C20.0075 25.5294 19.6084 25.1212 19.6084 24.6177V6.38238C19.6084 5.87882 20.0075 5.47058 20.4997 5.47058C20.992 5.47058 21.3911 5.87882 21.3911 6.38238V24.6177C21.3911 25.1212 20.992 25.5294 20.4997 25.5294Z" />
<path d="M24.0652 21.8824C23.5729 21.8824 23.1738 21.4741 23.1738 20.9706V6.38238C23.1738 5.87882 23.5729 5.47058 24.0652 5.47058C24.5574 5.47058 24.9565 5.87882 24.9565 6.38238V20.9706C24.9565 21.4741 24.5574 21.8824 24.0652 21.8824Z" />
<path d="M27.6306 21.8824C27.1383 21.8824 26.7393 21.4741 26.7393 20.9706V6.38238C26.7393 5.87882 27.1383 5.47058 27.6306 5.47058C28.1228 5.47058 28.5219 5.87882 28.5219 6.38238V20.9706C28.5218 21.4741 28.1228 21.8824 27.6306 21.8824Z" />
<path d="M31.1955 21.8824C30.7033 21.8824 30.3042 21.4741 30.3042 20.9706V6.38238C30.3042 5.87882 30.7033 5.47058 31.1955 5.47058C31.6878 5.47058 32.0869 5.87882 32.0869 6.38238V20.9706C32.0869 21.4741 31.6878 21.8824 31.1955 21.8824Z" />
<path d="M34.761 25.5294C34.2687 25.5294 33.8696 25.1212 33.8696 24.6177V6.38238C33.8696 5.87882 34.2687 5.47058 34.761 5.47058C35.2532 5.47058 35.6523 5.87882 35.6523 6.38238V24.6177C35.6523 25.1212 35.2532 25.5294 34.761 25.5294Z" />
<path d="M9.80431 25.5295C9.68733 25.5331 9.57118 25.5082 9.46564 25.4565C9.35426 25.4179 9.25557 25.3485 9.18045 25.2559C8.83585 24.9192 8.82332 24.3605 9.15246 24.0081C9.16157 23.9984 9.17093 23.9888 9.18045 23.9795C9.25549 23.8869 9.35426 23.8174 9.46564 23.7789C9.68265 23.6876 9.92606 23.6876 10.1431 23.7789C10.2547 23.817 10.3535 23.8865 10.4283 23.9795C10.7729 24.339 10.7673 24.9163 10.4158 25.2688C10.2523 25.4328 10.0333 25.5261 9.80431 25.5295Z" />
<path d="M13.3698 25.5293C12.8775 25.5233 12.4834 25.1102 12.4893 24.6066C12.4921 24.3717 12.5833 24.147 12.7441 23.9793C12.9939 23.7158 13.3761 23.6361 13.7067 23.7787C13.8183 23.8168 13.9172 23.8863 13.9919 23.9793C14.3365 24.3388 14.331 24.9161 13.9795 25.2686C13.8164 25.4322 13.5982 25.5256 13.3698 25.5293Z" />
<path d="M16.9347 25.5294C16.4425 25.5233 16.0483 25.1102 16.0543 24.6067C16.057 24.3718 16.1483 24.1471 16.309 23.9794C16.3841 23.8868 16.4828 23.8173 16.5942 23.7787C16.9251 23.6393 17.3057 23.7186 17.5568 23.9794C17.9014 24.3389 17.8959 24.9162 17.5444 25.2687C17.3809 25.4327 17.1619 25.5261 16.9329 25.5293H16.9347V25.5294Z" />
<path d="M24.0651 25.5294C23.9482 25.5313 23.8325 25.5064 23.7264 25.4565C23.615 25.4179 23.5163 25.3485 23.4412 25.2559C23.0966 24.9192 23.0841 24.3605 23.4132 24.0081C23.4223 23.9984 23.4317 23.9888 23.4412 23.9795C23.5162 23.8869 23.615 23.8174 23.7264 23.7789C23.9434 23.6876 24.1868 23.6876 24.4038 23.7789C24.5154 23.817 24.6143 23.8865 24.689 23.9795C25.0336 24.339 25.0281 24.9163 24.6765 25.2688C24.513 25.4328 24.294 25.5261 24.0651 25.5294Z" />
<path d="M27.6305 25.5294C27.5137 25.5313 27.3979 25.5064 27.2918 25.4565C27.1804 25.4178 27.0817 25.3484 27.0066 25.2559C26.662 24.9192 26.6495 24.3605 26.9786 24.008C26.9877 23.9983 26.9971 23.9887 27.0066 23.9794C27.3532 23.6319 27.9079 23.6319 28.2544 23.9794C28.599 24.3132 28.6138 24.8695 28.2876 25.2219C28.2768 25.2336 28.2658 25.2448 28.2544 25.2559C28.1796 25.3488 28.0808 25.4183 27.9692 25.4565C27.8631 25.5066 27.7473 25.5315 27.6305 25.5294Z" />
<path d="M31.1955 25.5294C31.0786 25.5313 30.9629 25.5064 30.8568 25.4565C30.7454 25.4179 30.6467 25.3485 30.5716 25.2559C30.3983 25.0915 30.3011 24.8596 30.3042 24.6176C30.2998 24.4979 30.3243 24.3789 30.3755 24.2712C30.4123 24.1573 30.4796 24.0562 30.5698 23.9795C30.6448 23.8869 30.7436 23.8174 30.855 23.7789C31.1859 23.6394 31.5664 23.7187 31.8176 23.9795C31.9076 24.0567 31.9755 24.1575 32.0137 24.2712C32.0649 24.379 32.0894 24.498 32.0849 24.6176C32.0718 25.1156 31.6804 25.516 31.1936 25.5294H31.1955Z" />
<path d="M0.891329 7.29409C0.39908 7.29409 0 6.88594 0 6.38238V0.911794C0 0.408243 0.39908 0 0.891329 0H6.23914C6.73139 0 7.13047 0.408243 7.13047 0.911794C7.13047 1.41534 6.73139 1.82359 6.23914 1.82359H1.78258V6.38238C1.78258 6.88594 1.38358 7.29409 0.891329 7.29409Z" />
<path d="M6.23914 31H0.891329C0.39908 31 0 30.5917 0 30.0882V24.6176C0 24.1141 0.39908 23.7058 0.891329 23.7058C1.38358 23.7058 1.78258 24.1141 1.78258 24.6176V29.1764H6.23906C6.73131 29.1764 7.13039 29.5846 7.13039 30.0882C7.13039 30.5917 6.73139 31 6.23914 31Z" />
<path d="M40.1088 7.29409C39.6165 7.29409 39.2174 6.88585 39.2174 6.3823V1.8235H34.761C34.2687 1.8235 33.8696 1.41526 33.8696 0.911708C33.8696 0.408157 34.2687 0 34.761 0H40.1088C40.601 0 41.0001 0.408243 41.0001 0.911794V6.38238C41.0001 6.88594 40.601 7.29409 40.1088 7.29409Z" />
<path d="M40.1088 31H34.761C34.2687 31 33.8696 30.5917 33.8696 30.0882C33.8696 29.5846 34.2687 29.1764 34.761 29.1764H39.2174V24.6176C39.2174 24.1141 39.6165 23.7058 40.1088 23.7058C40.601 23.7058 41.0001 24.1141 41.0001 24.6176V30.0882C41.0001 30.5917 40.601 31 40.1088 31Z" />
</svg>
