<svg width="29" height="29" viewBox="0 0 29 29" fill="none" xmlns="http://www.w3.org/2000/svg">
<path d="M19.8125 12.625H18.875V11.375C18.875 8.9626 16.9124 7 14.5 7C12.0876 7 10.125 8.9626 10.125 11.375V12.625H9.18751C9.01478 12.625 8.875 12.7648 8.875 12.9375V20.75C8.875 21.4394 9.4356 22 10.125 22H18.875C19.5644 22 20.125 21.4394 20.125 20.75V12.9375C20.125 12.7648 19.9852 12.625 19.8125 12.625ZM15.4357 19.153C15.4454 19.2412 15.4171 19.3297 15.3579 19.3959C15.2987 19.4622 15.2138 19.5 15.125 19.5H13.875C13.7862 19.5 13.7014 19.4622 13.6422 19.3959C13.5829 19.3297 13.5546 19.2412 13.5643 19.153L13.7615 17.3803C13.4414 17.1474 13.25 16.7791 13.25 16.375C13.25 15.6856 13.8106 15.125 14.5 15.125C15.1894 15.125 15.75 15.6856 15.75 16.375C15.75 16.7791 15.5587 17.1474 15.2386 17.3803L15.4357 19.153ZM17 12.625H12V11.375C12 9.99651 13.1215 8.875 14.5 8.875C15.8785 8.875 17 9.99651 17 11.375V12.625Z" fill="#38D828"/>
<circle cx="14.5" cy="14.5" r="13.75" stroke="#38D828" stroke-width="1.5"/>
</svg>
