<svg width="16" height="16" viewBox="0 0 16 16" xmlns="http://www.w3.org/2000/svg">
<path d="M10.8503 9.41292L8.61944 7.73979V4.3316C8.61944 3.98891 8.34244 3.71191 7.99975 3.71191C7.65707 3.71191 7.38007 3.98891 7.38007 4.3316V8.04967C7.38007 8.24486 7.47178 8.42892 7.62794 8.54542L10.1066 10.4045C10.2182 10.4881 10.3483 10.5284 10.4778 10.5284C10.6668 10.5284 10.8527 10.4435 10.9742 10.2799C11.18 10.0066 11.1242 9.61804 10.8503 9.41292Z" />
<path d="M8 0C3.58853 0 0 3.58853 0 8C0 12.4115 3.58853 16 8 16C12.4115 16 16 12.4115 16 8C16 3.58853 12.4115 0 8 0ZM8 14.7607C4.27266 14.7607 1.23934 11.7273 1.23934 8C1.23934 4.27266 4.27266 1.23934 8 1.23934C11.728 1.23934 14.7607 4.27266 14.7607 8C14.7607 11.7273 11.7273 14.7607 8 14.7607Z" />
</svg>
