<svg width="30" height="30" viewBox="0 0 30 30" xmlns="http://www.w3.org/2000/svg">
<g clip-path="url(#clip0)">
<path d="M27.7215 10.0856C27.815 9.58452 27.8623 9.0759 27.863 8.56616C27.8573 3.83192 24.0148 -0.00131245 19.2806 0.00440091C15.6766 0.00873302 12.4603 2.26677 11.232 5.65492C9.03272 4.77946 6.54012 5.85256 5.6646 8.05183C5.58882 8.24219 5.52678 8.4377 5.47901 8.63692C1.96736 9.16211 -0.453601 12.4346 0.071589 15.9463C0.542596 19.0957 3.24822 21.4258 6.43264 21.4244H11.7902C12.382 21.4244 12.8617 20.9447 12.8617 20.3529C12.8617 19.7611 12.382 19.2814 11.7902 19.2814H6.43264C4.06548 19.2814 2.14655 17.3624 2.14655 14.9953C2.14655 12.6281 4.06548 10.7092 6.43264 10.7092C7.02444 10.7092 7.50417 10.2294 7.50417 9.63764C7.50612 8.45409 8.46716 7.49619 9.6507 7.49814C10.2104 7.49908 10.7476 7.71895 11.1473 8.11072C11.5688 8.5261 12.2472 8.52114 12.6626 8.09967C12.8185 7.94139 12.9214 7.7386 12.957 7.51923C13.5387 4.02008 16.8468 1.655 20.3459 2.23663C23.8451 2.81826 26.2102 6.12637 25.6285 9.62552C25.5939 9.83415 25.5489 10.041 25.4938 10.2451C25.3706 10.6924 25.5492 11.1681 25.9364 11.4238C27.9088 12.7325 28.4468 15.3925 27.138 17.3649C26.3458 18.5588 25.0096 19.2778 23.5769 19.2812H20.3623C19.7705 19.2812 19.2908 19.761 19.2908 20.3528C19.2908 20.9446 19.7705 21.4243 20.3623 21.4243H23.5769C27.1276 21.421 30.0033 18.5398 29.9999 14.9891C29.9981 13.0992 29.1649 11.3058 27.7215 10.0856Z" />
<path d="M22.1676 22.809C21.7523 22.408 21.094 22.408 20.6788 22.809L17.1482 26.3376V10.7084C17.1482 10.1166 16.6684 9.63684 16.0766 9.63684C15.4848 9.63684 15.0051 10.1166 15.0051 10.7084V26.3375L11.4766 22.809C11.0509 22.3979 10.3726 22.4097 9.96144 22.8353C9.56038 23.2505 9.56038 23.9088 9.96144 24.3241L15.319 29.6816C15.7369 30.1006 16.4154 30.1015 16.8344 29.6835C16.835 29.6829 16.8356 29.6823 16.8363 29.6816L22.1939 24.3241C22.6051 23.8985 22.5933 23.2201 22.1676 22.809Z" />
</g>
<defs>
<clipPath id="clip0">
<rect width="30" height="30" />
</clipPath>
</defs>
</svg>
