<svg width="30" height="30" viewBox="0 0 30 30" xmlns="http://www.w3.org/2000/svg">
<path d="M24.6425 15C24.0508 15 23.5711 15.4797 23.5711 16.0715V26.7856C23.5711 27.3773 23.0914 27.857 22.4996 27.857H3.21424C2.6225 27.857 2.14281 27.3773 2.14281 26.7856V5.35731C2.14281 4.76556 2.6225 4.28587 3.21424 4.28587H16.0712C16.663 4.28587 17.1426 3.80619 17.1426 3.21444C17.1426 2.62269 16.663 2.14307 16.0712 2.14307H3.21424C1.43906 2.14307 0 3.58213 0 5.35731V26.7856C0 28.5608 1.43906 29.9998 3.21424 29.9998H22.4997C24.2749 29.9998 25.7139 28.5608 25.7139 26.7856V16.0714C25.7139 15.4797 25.2343 15 24.6425 15Z" />
<path d="M28.7987 1.20171C28.0294 0.432301 26.986 0.000135535 25.898 0.000261091C24.8093 -0.00287782 23.7648 0.43004 22.9977 1.2024L8.88493 15.3139C8.76785 15.4319 8.67952 15.5753 8.62672 15.7329L6.48392 22.1613C6.2969 22.7228 6.60043 23.3295 7.16186 23.5164C7.27078 23.5527 7.38485 23.5712 7.4996 23.5713C7.61461 23.5711 7.72893 23.5527 7.83817 23.5167L14.2667 21.3739C14.4245 21.3212 14.568 21.2324 14.6856 21.1146L28.7982 7.00197C30.4 5.40038 30.4002 2.8035 28.7987 1.20171ZM27.2833 5.48802L13.3549 19.4164L9.19349 20.806L10.5788 16.65L24.5126 2.72163C25.2786 1.95712 26.5194 1.95838 27.2839 2.72439C27.6491 3.09033 27.8549 3.58571 27.8564 4.10269C27.8578 4.62243 27.6514 5.12114 27.2833 5.48802Z" />
</svg>
