<svg width="162" height="162" viewBox="0 0 162 162" fill="none" xmlns="http://www.w3.org/2000/svg">
<g clip-path="url(#clip0)">
<path d="M76.9544 29.0556H126.299C127.629 29.0556 128.707 27.9776 128.707 26.6474C128.707 25.3173 127.628 24.2393 126.299 24.2393H76.9544C75.6242 24.2393 74.5459 25.3173 74.5459 26.6474C74.5459 27.9776 75.6239 29.0556 76.9544 29.0556Z" fill="#C9CDE0"/>
<path d="M124.119 46.7079H149.518C150.848 46.7079 151.926 45.6299 151.926 44.2998C151.926 42.9696 150.848 41.8916 149.518 41.8916H124.119C122.789 41.8916 121.711 42.9696 121.711 44.2998C121.711 45.6299 122.789 46.7079 124.119 46.7079Z" fill="#C9CDE0"/>
<path d="M124.99 63.1191H135.023C136.353 63.1191 137.431 62.0411 137.431 60.7109C137.431 59.3807 136.353 58.3027 135.023 58.3027H124.989C123.659 58.3027 122.581 59.3807 122.581 60.7109C122.581 62.0411 123.659 63.1191 124.99 63.1191Z" fill="#C9CDE0"/>
<path d="M135.023 75.0038H159.592C160.922 75.0038 162 73.9258 162 72.5957C162 71.2655 160.922 70.1875 159.592 70.1875H135.023C133.693 70.1875 132.615 71.2655 132.615 72.5957C132.615 73.9258 133.693 75.0038 135.023 75.0038Z" fill="#C9CDE0"/>
<path d="M73.7432 137.76H126.299C127.629 137.76 128.707 136.682 128.707 135.352C128.707 134.021 127.628 132.943 126.299 132.943H73.7432C72.4131 132.943 71.3351 134.021 71.3351 135.352C71.3351 136.682 72.4131 137.76 73.7432 137.76Z" fill="#C9CDE0"/>
<path d="M124.119 120.108H149.518C150.848 120.108 151.926 119.03 151.926 117.7C151.926 116.369 150.848 115.291 149.518 115.291H124.119C122.789 115.291 121.711 116.369 121.711 117.7C121.711 119.03 122.789 120.108 124.119 120.108Z" fill="#C9CDE0"/>
<path d="M124.99 103.697H135.023C136.353 103.697 137.431 102.619 137.431 101.288C137.431 99.9576 136.353 98.8799 135.023 98.8799H124.989C123.659 98.8799 122.581 99.9579 122.581 101.288C122.581 102.618 123.659 103.697 124.99 103.697Z" fill="#C9CDE0"/>
<path d="M135.023 91.8118H159.592C160.922 91.8118 162 90.7338 162 89.4036C162 88.0734 160.922 86.9951 159.592 86.9951H135.023C133.693 86.9951 132.615 88.0731 132.615 89.4036C132.615 90.7341 133.693 91.8118 135.023 91.8118Z" fill="#C9CDE0"/>
<path d="M59.3964 140.396C26.5928 140.396 0.000289917 113.803 0.000289917 80.9996C0.000289917 48.1961 26.5928 21.6035 59.3964 21.6035C92.1999 21.6035 118.792 48.1961 118.792 80.9996C118.792 113.803 92.1999 140.396 59.3964 140.396Z" fill="#EFF1F9"/>
<path d="M59.3964 21.6035C60.9 21.6035 62.39 21.6605 63.8654 21.7703C33.1493 24.0553 8.93817 49.6994 8.93817 80.9996C8.93817 112.3 33.1493 137.944 63.8654 140.229C62.39 140.339 60.9 140.396 59.3964 140.396C26.5927 140.396 5.85043e-06 113.803 5.85043e-06 80.9996C5.85043e-06 48.1959 26.5927 21.6035 59.3964 21.6035V21.6035Z" fill="#C9CDE0"/>
<path d="M59.3965 126.608C34.2078 126.608 13.7884 106.188 13.7884 80.9997C13.7884 55.811 34.2078 35.3916 59.3965 35.3916C84.5851 35.3916 105.005 55.811 105.005 80.9997C105.005 106.188 84.5851 126.608 59.3965 126.608Z" fill="white"/>
<path d="M59.3964 35.3916C60.7841 35.3916 62.1561 35.4571 63.5122 35.5786C40.2526 37.6596 22.02 57.1989 22.02 81C22.02 104.801 40.2526 124.34 63.5122 126.421C62.1561 126.542 60.7841 126.608 59.3964 126.608C34.2076 126.608 13.7883 106.188 13.7883 80.9997C13.788 55.8112 34.2076 35.3916 59.3964 35.3916V35.3916Z" fill="#ECECF7"/>
<path d="M59.3962 52.0454C60.7264 52.0454 61.8047 50.9674 61.8047 49.6372V45.9609C61.8047 44.6307 60.7267 43.5527 59.3962 43.5527C58.0657 43.5527 56.988 44.6307 56.988 45.9609V49.6369C56.988 50.9671 58.066 52.0454 59.3962 52.0454Z" fill="#365E7D"/>
<path d="M37.2196 61.2311C37.8356 61.2311 38.4523 60.996 38.9228 60.5258C39.8631 59.5852 39.8631 58.0604 38.9228 57.1197L36.3235 54.5205C35.3828 53.5804 33.8581 53.5804 32.9174 54.5205C31.977 55.4611 31.977 56.9859 32.9174 57.9266L35.5167 60.5258C35.9869 60.996 36.6032 61.2311 37.2196 61.2311V61.2311Z" fill="#365E7D"/>
<path d="M24.3576 83.4084H28.0333C29.3635 83.4084 30.4418 82.3305 30.4418 81C30.4418 79.6695 29.3638 78.5918 28.0333 78.5918H24.3576C23.0274 78.5918 21.9491 79.6698 21.9491 81C21.9491 82.3301 23.0274 83.4084 24.3576 83.4084Z" fill="#365E7D"/>
<path d="M34.6203 108.184C35.2363 108.184 35.853 107.949 36.3235 107.479L38.9228 104.88C39.8631 103.939 39.8631 102.414 38.9228 101.474C37.9821 100.534 36.4573 100.534 35.5167 101.474L32.9174 104.073C31.977 105.014 31.977 106.538 32.9174 107.479C33.3876 107.949 34.0039 108.184 34.6203 108.184Z" fill="#365E7D"/>
<path d="M59.3962 118.446C60.7264 118.446 61.8047 117.368 61.8047 116.038V112.362C61.8047 111.032 60.7267 109.954 59.3962 109.954C58.0657 109.954 56.988 111.032 56.988 112.362V116.038C56.988 117.368 58.066 118.446 59.3962 118.446Z" fill="#365E7D"/>
<path d="M84.1723 108.184C84.7886 108.184 85.405 107.949 85.8752 107.479C86.8159 106.538 86.8159 105.014 85.8752 104.073L83.2759 101.474C82.3355 100.534 80.8105 100.534 79.8701 101.474C78.9294 102.414 78.9294 103.939 79.8701 104.88L82.4694 107.479C82.9396 107.949 83.5559 108.184 84.1723 108.184V108.184Z" fill="#365E7D"/>
<path d="M90.759 83.4084H94.435C95.7651 83.4084 96.8431 82.3305 96.8431 81C96.8431 79.6695 95.7648 78.5918 94.435 78.5918H90.759C89.4288 78.5918 88.3508 79.6698 88.3508 81C88.3508 82.3301 89.4291 83.4084 90.759 83.4084Z" fill="#365E7D"/>
<path d="M81.573 61.2311C82.1894 61.2311 82.8057 60.996 83.2759 60.5258L85.8752 57.9266C86.8159 56.9859 86.8159 55.4611 85.8752 54.5205C84.9348 53.5804 83.4097 53.5804 82.4694 54.5205L79.8701 57.1197C78.9294 58.0604 78.9294 59.5852 79.8701 60.5258C80.3403 60.996 80.9566 61.2311 81.573 61.2311V61.2311Z" fill="#365E7D"/>
<path d="M48.8541 83.4083H59.3961C60.7263 83.4083 61.8046 82.3303 61.8046 80.9998V60.7109C61.8046 59.3807 60.7266 58.3027 59.3961 58.3027C58.0656 58.3027 56.9879 59.3807 56.9879 60.7109V78.5913H48.8541C47.5239 78.5913 46.4456 79.6693 46.4456 80.9995C46.4456 82.3297 47.5239 83.4083 48.8541 83.4083Z" fill="#2B4D66"/>
</g>
<defs>
<clipPath id="clip0">
<rect width="162" height="162" fill="white" transform="matrix(-1 0 0 1 162 0)"/>
</clipPath>
</defs>
</svg>
