<svg width="24" height="25" viewBox="0 0 24 25" xmlns="http://www.w3.org/2000/svg">
<path d="M2.57126 24.2002L13.7142 24.2002C15.1343 24.2002 16.2856 23.0489 16.2856 21.6288L16.2856 16.4859C16.2856 16.0125 15.9018 15.6288 15.4284 15.6288C14.955 15.6288 14.5713 16.0125 14.5713 16.4859L14.5713 21.6288C14.5713 22.1022 14.1875 22.4859 13.7141 22.4859L2.57121 22.4859C2.09781 22.4859 1.71405 22.1022 1.71405 21.6288L1.71405 2.77162C1.71405 2.29822 2.09781 1.91446 2.57121 1.91446L13.7142 1.91446C14.1876 1.91446 14.5713 2.29822 14.5713 2.77162L14.5713 7.91448C14.5713 8.38788 14.9551 8.77163 15.4285 8.77163C15.9019 8.77163 16.2856 8.38788 16.2856 7.91448L16.2856 2.77162C16.2856 1.35146 15.1344 0.200195 13.7142 0.200195L2.57131 0.200194C1.15115 0.200194 -0.000118165 1.35146 -0.00011829 2.77162L-0.000119938 21.6288C-0.000171561 23.0489 1.1511 24.2002 2.57126 24.2002Z" />
<path d="M6.85721 13.0574L21.0737 13.0574L18.2512 15.88C17.9223 16.2205 17.9317 16.7631 18.2722 17.0919C18.6044 17.4127 19.131 17.4127 19.4631 17.0919L23.7489 12.8062C23.8285 12.7266 23.8914 12.6319 23.934 12.5277C24.0207 12.318 24.0207 12.0825 23.934 11.8728C23.8912 11.7682 23.828 11.6732 23.748 11.5934L19.4623 7.30765C19.1335 6.96714 18.5909 6.9577 18.2503 7.28656C17.9098 7.61542 17.9004 8.15803 18.2293 8.49855C18.2361 8.50568 18.2432 8.51271 18.2503 8.51964L21.0737 11.3431L6.85716 11.3431C6.38376 11.3431 6 11.7268 6 12.2002C6 12.6737 6.3838 13.0574 6.85721 13.0574Z" />
</svg>
