<svg width="24" height="24" viewBox="0 0 24 24" xmlns="http://www.w3.org/2000/svg">
<path d="M12 24C9.15867 24 6.40284 22.9892 4.24017 21.1537C3.73238 20.723 3.25603 20.2455 2.8245 19.7346C1.00298 17.5755 0 14.8288 0 12C0 8.79464 1.24819 5.78119 3.51469 3.51469C5.78119 1.24819 8.79464 0 12 0C15.2054 0 18.2188 1.24819 20.4853 3.51469C22.7518 5.78119 24 8.79464 24 12C24 14.8288 22.997 17.5755 21.1757 19.7343C20.744 20.2455 20.2676 20.723 19.7597 21.1538C17.5972 22.9892 14.8413 24 12 24ZM12 1.5C6.21028 1.5 1.5 6.21028 1.5 12C1.5 14.4752 2.37745 16.8785 3.97073 18.767C4.34855 19.2143 4.76578 19.6326 5.21063 20.01C7.10269 21.6157 9.5138 22.5 12 22.5C14.4862 22.5 16.8973 21.6157 18.7892 20.01C19.2342 19.6326 19.6515 19.2143 20.0295 18.7667C21.6225 16.8785 22.5 14.4753 22.5 12C22.5 6.21028 17.7897 1.5 12 1.5Z" />
<path d="M12 12C9.51867 12 7.5 9.98133 7.5 7.5C7.5 5.01867 9.51867 3 12 3C14.4813 3 16.5 5.01867 16.5 7.5C16.5 9.98133 14.4813 12 12 12ZM12 4.5C10.3458 4.5 9 5.84578 9 7.5C9 9.15422 10.3458 10.5 12 10.5C13.6542 10.5 15 9.15422 15 7.5C15 5.84578 13.6542 4.5 12 4.5Z" />
<path d="M19.2751 21.3321C19.2146 21.3321 19.1532 21.3247 19.0919 21.3093C18.6902 21.2085 18.4462 20.8011 18.5471 20.3993C18.6817 19.8629 18.75 19.308 18.75 18.75C18.75 15.0804 15.7666 12.0532 12.0988 12.0005L12 12L11.9012 12.0005C8.23341 12.0532 5.25 15.0804 5.25 18.75C5.25 19.308 5.3183 19.8629 5.45292 20.3993C5.55375 20.8011 5.30981 21.2085 4.90809 21.3093C4.50638 21.4102 4.09889 21.1663 3.99806 20.7645C3.83344 20.1088 3.75 19.431 3.75 18.75C3.75 16.5667 4.59455 14.5086 6.12806 12.9548C7.66008 11.4026 9.70392 10.531 11.8831 10.5006C11.8866 10.5005 11.8901 10.5005 11.8936 10.5005L12 10.5L12.1064 10.5005C12.1099 10.5005 12.1134 10.5005 12.1169 10.5005C14.2961 10.5309 16.3399 11.4026 17.8719 12.9548C19.4055 14.5086 20.25 16.5667 20.25 18.75C20.25 19.431 20.1666 20.1088 20.0019 20.7645C19.9165 21.1049 19.6109 21.332 19.2751 21.3321Z" />
</svg>
