<svg width="24" height="24" viewBox="0 0 24 24" xmlns="http://www.w3.org/2000/svg">
<g clip-path="url(#clip0)">
<path d="M20.25 16.5C19.4229 16.5 18.75 15.8271 18.75 15V9.75C18.75 7.94259 18.0449 6.24455 16.7645 4.96866C15.9752 4.18209 15.0261 3.615 13.9906 3.297C14.1559 2.98406 14.25 2.62791 14.25 2.25C14.25 1.00936 13.2406 0 12 0C10.7594 0 9.75 1.00936 9.75 2.25C9.75 2.63006 9.84506 2.98823 10.0122 3.30248C7.2585 4.16259 5.25 6.75984 5.25 9.81516V15C5.25 15.8271 4.57711 16.5 3.75 16.5C3.33581 16.5 3 16.8358 3 17.25V20.25C3 20.6642 3.33581 21 3.75 21H9.40195C9.38442 21.1232 9.375 21.2484 9.375 21.375C9.375 22.8224 10.5526 24 12 24C13.4474 24 14.625 22.8224 14.625 21.375C14.625 21.2484 14.6156 21.1232 14.598 21H20.25C20.6642 21 21 20.6642 21 20.25V17.25C21 16.8358 20.6642 16.5 20.25 16.5ZM12 1.5C12.4135 1.5 12.75 1.83647 12.75 2.25C12.75 2.66353 12.4135 3 12 3C11.5865 3 11.25 2.66353 11.25 2.25C11.25 1.83647 11.5865 1.5 12 1.5ZM13.125 21.375C13.125 21.9953 12.6203 22.5 12 22.5C11.3797 22.5 10.875 21.9953 10.875 21.375C10.875 21.2454 10.8967 21.1192 10.9388 21H13.0612C13.1033 21.1192 13.125 21.2454 13.125 21.375ZM19.5 19.5H13.5H10.5H4.5V17.9051C5.79248 17.5712 6.75 16.3953 6.75 15V9.81516C6.75 6.89452 9.09666 4.51017 11.9811 4.50005C11.9875 4.50005 11.9938 4.5 12.0001 4.5C13.399 4.5 14.7144 5.04333 15.7057 6.03117C16.7016 7.02352 17.25 8.34427 17.25 9.75V15C17.25 16.3953 18.2075 17.5712 19.5 17.9051V19.5Z" />
<path d="M9 10.5C8.58581 10.5 8.25 10.1642 8.25 9.75C8.25 7.68225 9.93225 6 12 6C12.4142 6 12.75 6.33581 12.75 6.75C12.75 7.16419 12.4142 7.5 12 7.5C10.7594 7.5 9.75 8.50936 9.75 9.75C9.75 10.1642 9.41419 10.5 9 10.5Z" />
</g>
<defs>
<clipPath id="clip0">
<rect width="24" height="24" fill="white"/>
</clipPath>
</defs>
</svg>
