<svg width="1763" height="182" viewBox="0 0 1763 182" fill="none" xmlns="http://www.w3.org/2000/svg">
<path d="M1252.44 356.253C1246.59 356.253 1240.78 355.952 1234.93 355.401C1211.52 353.186 1188.85 345.969 1168.47 334.236C1148.08 322.504 1130.45 306.529 1116.75 287.391C1116.24 286.692 1115.99 285.835 1116.05 284.97C1116.1 284.106 1116.46 283.288 1117.05 282.659L1168.59 227.143C1169 226.696 1169.52 226.357 1170.09 226.156C1170.67 225.955 1171.29 225.899 1171.89 225.992C1172.49 226.079 1173.06 226.311 1173.56 226.669C1174.05 227.027 1174.45 227.499 1174.72 228.045C1174.92 228.496 1197.08 272.592 1246.81 275.422C1267.83 276.574 1284.81 268.235 1285.46 256.441C1285.61 253.937 1285.94 248.929 1271.45 242.719C1252.74 235.207 1227.2 225.19 1188.6 210.166C1142.32 192.262 1120.18 159.058 1124.63 114.16C1127.79 82.2084 1145.12 56.692 1174.67 40.3906C1201.01 25.8921 1235.21 19.8573 1270.98 23.413C1319.21 28.2208 1354.01 56.1912 1370.44 72.4426C1371.17 73.0847 1371.62 73.9801 1371.7 74.9444C1371.79 75.9087 1371.5 76.8685 1370.89 77.626L1322.59 131.088L1321.81 132.164C1321.49 132.632 1321.07 133.018 1320.57 133.292C1320.08 133.566 1319.53 133.72 1318.96 133.742C1318.4 133.774 1317.84 133.678 1317.32 133.461C1316.8 133.244 1316.33 132.912 1315.96 132.49C1305.95 121.117 1293.14 112.563 1278.81 107.675C1253.79 98.8604 1232.85 103.418 1222.55 109.978C1217.54 113.134 1214.62 116.99 1214.24 120.821C1213.87 124.652 1215.22 131.163 1227.65 135.645C1273.48 152.222 1306.55 165.168 1323.34 173.206C1338.68 180.482 1352.32 190.918 1363.36 203.831C1377.65 221.084 1383.85 240.39 1381.75 261.224C1375.42 325.002 1313.36 356.253 1252.44 356.253ZM1124.73 285.463C1137.86 303.066 1154.52 317.719 1173.65 328.476C1192.79 339.233 1213.96 345.855 1235.81 347.914C1241.33 348.465 1246.94 348.741 1252.54 348.741C1310.08 348.741 1368.49 319.744 1374.42 260.397C1379.42 210.316 1330.14 184.599 1320.21 179.917C1303.65 172.129 1270.78 159.258 1225.15 142.757C1207.34 136.321 1206.41 124.802 1206.81 120.22C1207.44 114.035 1211.62 108.201 1218.57 103.768C1230.3 96.2562 1253.77 90.9977 1281.31 100.688C1295.46 105.516 1308.26 113.634 1318.66 124.377L1362.81 75.3222C1346.18 59.5466 1314.03 35.2572 1270.45 30.9252C1236.18 27.5197 1203.53 33.229 1178.49 47.0013C1151.13 62.0257 1135.14 85.5388 1132.21 114.936C1128.09 156.679 1148.02 186.377 1191.45 203.18C1230.08 218.204 1255.67 228.22 1274.43 235.732C1291.69 242.969 1293.47 250.757 1293.07 256.817C1292.17 273.068 1272.15 284.361 1246.51 282.859C1201.83 280.355 1178.17 248.278 1170.71 235.983L1124.73 285.463Z" fill="#F6F6F6"/>
<path d="M1576.03 356.353C1543.03 356.353 1510.77 346.557 1483.33 328.205C1455.89 309.852 1434.5 283.767 1421.87 253.248C1409.24 222.729 1405.94 189.147 1412.38 156.748C1418.81 124.349 1434.71 94.5887 1458.04 71.2304C1481.38 47.8721 1511.11 31.9649 1543.48 25.5204C1575.84 19.0758 1609.39 22.3834 1639.88 35.0248C1670.37 47.6662 1696.43 69.0737 1714.77 96.5402C1733.1 124.007 1742.89 156.298 1742.89 189.332C1742.84 233.614 1725.25 276.07 1693.96 307.382C1662.68 338.695 1620.27 356.306 1576.03 356.353ZM1576.03 29.8483C1544.51 29.8483 1513.7 39.204 1487.49 56.7321C1461.29 74.2603 1440.86 99.1736 1428.8 128.321C1416.74 157.469 1413.59 189.543 1419.74 220.485C1425.89 251.427 1441.07 279.849 1463.36 302.156C1485.65 324.462 1514.04 339.652 1544.95 345.804C1575.87 351.956 1607.91 348.793 1637.03 336.717C1666.15 324.64 1691.03 304.191 1708.54 277.957C1726.05 251.723 1735.39 220.881 1735.38 189.332C1735.34 147.044 1718.53 106.502 1688.66 76.6024C1658.78 46.7028 1618.27 29.8881 1576.03 29.8483ZM1575.33 274.72C1552.95 274.444 1531.58 265.377 1515.82 249.473C1500.06 233.569 1491.17 212.103 1491.08 189.702C1490.98 167.301 1499.68 145.76 1515.31 129.722C1530.93 113.685 1552.23 104.435 1574.6 103.969C1585.8 103.869 1596.91 105.98 1607.3 110.181C1617.69 114.381 1627.15 120.588 1635.13 128.448C1643.12 136.307 1649.49 145.666 1653.86 155.988C1658.24 166.31 1660.54 177.393 1660.63 188.606V189.332C1660.7 211.878 1651.83 233.529 1635.97 249.537C1620.11 265.544 1598.55 274.601 1576.03 274.72H1575.33ZM1575.33 111.481H1574.65C1554.26 111.922 1534.85 120.364 1520.62 134.987C1506.38 149.61 1498.45 169.246 1498.53 189.664C1498.62 210.083 1506.71 229.652 1521.07 244.155C1535.43 258.659 1554.91 266.938 1575.3 267.208H1576.03C1596.56 267.096 1616.21 258.837 1630.67 244.242C1645.13 229.648 1653.21 209.91 1653.15 189.357V188.681C1652.98 168.147 1644.71 148.512 1630.14 134.052C1615.58 119.593 1595.89 111.48 1575.38 111.481H1575.33Z" fill="#F6F6F6"/>
<path d="M556.859 356.353C523.857 356.353 491.597 346.557 464.157 328.205C436.717 309.852 415.331 283.767 402.702 253.248C390.072 222.729 386.768 189.147 393.206 156.748C399.644 124.349 415.536 94.5887 438.872 71.2304C462.208 47.8721 491.939 31.9649 524.306 25.5204C556.674 19.0758 590.223 22.3834 620.713 35.0248C651.202 47.6662 677.262 69.0737 695.597 96.5402C713.932 124.007 723.718 156.298 723.718 189.332C723.671 233.614 706.077 276.07 674.795 307.382C643.513 338.695 601.098 356.306 556.859 356.353ZM556.859 29.8483C525.341 29.8483 494.53 39.204 468.324 56.7321C442.118 74.2603 421.693 99.1736 409.633 128.321C397.572 157.469 394.418 189.543 400.569 220.485C406.72 251.427 421.899 279.849 444.187 302.156C466.476 324.462 494.873 339.652 525.786 345.804C556.699 351.956 588.741 348.793 617.858 336.717C646.976 324.64 671.862 304.191 689.369 277.957C706.876 251.723 716.218 220.881 716.213 189.332C716.167 147.044 699.362 106.502 669.486 76.6024C639.611 46.7028 599.106 29.8881 556.859 29.8483ZM556.158 274.72C533.781 274.444 512.408 265.377 496.647 249.473C480.887 233.569 472.001 212.103 471.906 189.702C471.811 167.301 480.514 145.76 496.138 129.722C511.763 113.685 533.058 104.435 555.433 103.969C566.634 103.869 577.746 105.98 588.132 110.181C598.518 114.381 607.976 120.588 615.965 128.448C623.954 136.307 630.318 145.666 634.693 155.988C639.069 166.31 641.369 177.393 641.464 188.606V189.332C641.531 211.878 632.661 233.529 616.8 249.537C600.939 265.544 579.382 274.601 556.859 274.72H556.158ZM556.158 111.481H555.483C535.089 111.922 515.683 120.364 501.446 134.987C487.209 149.61 479.28 169.246 479.365 189.664C479.45 210.083 487.544 229.652 501.902 244.155C516.261 258.659 535.736 266.938 556.133 267.208H556.859C577.392 267.096 597.042 258.837 611.5 244.242C625.958 229.648 634.044 209.91 633.984 189.357V188.681C633.813 168.147 625.543 148.512 610.975 134.052C596.408 119.593 576.724 111.48 556.208 111.481H556.158Z" fill="#F6F6F6"/>
<path d="M842.174 437.96H760.621C759.626 437.96 758.672 437.565 757.968 436.86C757.264 436.156 756.869 435.2 756.869 434.204V189.332C756.921 145.162 774.433 102.807 805.579 71.5182C836.725 40.229 878.975 22.5478 923.102 22.3362H923.652C948.979 22.3282 973.974 28.0911 996.745 39.1881C1019.52 50.2851 1039.46 66.425 1055.08 86.3846C1070.69 106.344 1081.56 129.6 1086.87 154.389C1092.17 179.178 1091.76 204.85 1085.68 229.459C1079.6 254.068 1068 276.969 1051.77 296.426C1035.53 315.882 1015.09 331.384 991.978 341.757C968.868 352.13 943.704 357.101 918.39 356.293C893.077 355.486 868.279 348.921 845.877 337.097V434.254C845.864 435.233 845.47 436.168 844.778 436.86C844.087 437.553 843.152 437.947 842.174 437.96ZM764.374 430.448H838.422V330.686C838.416 330.026 838.587 329.375 838.917 328.803C839.247 328.231 839.724 327.757 840.298 327.431C840.868 327.099 841.515 326.924 842.174 326.924C842.834 326.924 843.481 327.099 844.051 327.431C865.196 339.64 888.862 346.821 913.221 348.422C937.579 350.023 961.98 345.999 984.539 336.662C1007.1 327.326 1027.21 312.925 1043.33 294.572C1059.44 276.22 1071.13 254.406 1077.49 230.814C1083.85 207.222 1084.7 182.484 1079.99 158.508C1075.28 134.532 1065.13 111.961 1050.32 92.5351C1035.51 73.1096 1016.45 57.3497 994.586 46.472C972.727 35.5943 948.664 29.8896 924.253 29.7983H923.702C881.46 29.8447 840.961 46.6623 811.091 76.5612C781.221 106.46 764.42 146.998 764.374 189.282V430.448ZM923.102 274.721C906.261 274.72 889.797 269.73 875.785 260.379C861.773 251.028 850.839 237.735 844.362 222.174C837.884 206.614 836.153 189.482 839.386 172.939C842.62 156.395 850.672 141.18 862.53 129.209C874.388 117.239 889.52 109.05 906.02 105.674C922.519 102.297 939.648 103.885 955.248 110.237C970.847 116.588 984.22 127.42 993.68 141.366C1003.14 155.312 1008.26 171.749 1008.41 188.606V189.332C1008.47 211.873 999.608 233.521 983.752 249.528C967.897 265.535 946.347 274.595 923.828 274.721H923.102ZM923.102 111.481H922.427C902.011 111.977 882.609 120.489 868.408 135.178C854.207 149.868 846.345 169.557 846.519 189.998C846.693 210.438 854.889 229.991 869.338 244.436C883.788 258.881 903.332 267.06 923.753 267.208C944.281 267.089 963.925 258.827 978.378 244.234C992.83 229.64 1000.91 209.906 1000.85 189.357V188.681C1000.68 168.151 992.415 148.52 977.853 134.061C963.291 119.602 943.613 111.487 923.102 111.481Z" fill="#F6F6F6"/>
<path d="M108.246 437.96H26.7174C25.7222 437.96 24.7678 437.565 24.064 436.86C23.3603 436.156 22.965 435.2 22.965 434.204V189.332C23.0108 145.151 40.5272 102.785 71.6857 71.4934C102.844 40.2013 145.111 22.5281 189.248 22.3362H189.799C215.124 22.332 240.118 28.0982 262.886 39.1977C285.655 50.2973 305.6 66.4389 321.212 86.3994C336.823 106.36 347.69 129.616 352.99 154.404C358.29 179.192 357.883 204.863 351.801 229.471C345.719 254.079 334.12 276.978 317.884 296.433C301.649 315.888 281.202 331.388 258.093 341.76C234.985 352.131 209.821 357.101 184.508 356.293C159.196 355.485 134.4 348.921 111.998 337.097V434.254C111.985 435.242 111.584 436.184 110.881 436.878C110.179 437.572 109.232 437.96 108.246 437.96ZM30.4699 430.448H104.493V330.686C104.493 330.027 104.666 329.379 104.995 328.807C105.324 328.236 105.798 327.762 106.368 327.432C106.939 327.102 107.586 326.928 108.245 326.928C108.904 326.928 109.551 327.101 110.122 327.431C131.267 339.639 154.931 346.821 179.289 348.422C203.646 350.023 228.046 346 250.604 336.665C273.162 327.329 293.276 312.93 309.392 294.579C325.509 276.228 337.198 254.416 343.557 230.826C349.915 207.236 350.774 182.498 346.066 158.523C341.359 134.548 331.211 111.976 316.405 92.55C301.6 73.1236 282.533 57.362 260.677 46.4817C238.821 35.6015 214.759 29.8935 190.349 29.7983H189.799C147.548 29.8447 107.041 46.6692 77.1698 76.5789C47.2984 106.489 30.503 147.04 30.4699 189.332V430.448ZM189.098 274.721C166.721 274.444 145.348 265.377 129.587 249.473C113.827 233.569 104.941 212.103 104.846 189.702C104.751 167.301 113.454 145.76 129.078 129.722C144.703 113.685 165.998 104.435 188.373 103.969H189.123C211.616 103.968 233.198 112.862 249.171 128.714C265.143 144.566 274.213 166.092 274.404 188.606V189.332C274.471 211.873 265.604 233.521 249.748 249.528C233.893 265.535 212.343 274.595 189.824 274.721H189.098ZM189.098 111.481H188.423C168.029 111.922 148.623 120.364 134.386 134.987C120.149 149.61 112.219 169.246 112.305 189.664C112.39 210.083 120.483 229.652 134.842 244.155C149.201 258.659 168.676 266.938 189.073 267.208H189.749C210.282 267.096 229.932 258.837 244.39 244.242C258.848 229.648 266.934 209.91 266.874 189.357V188.681C266.703 168.151 258.436 148.52 243.874 134.061C229.312 119.602 209.634 111.487 189.123 111.481H189.098Z" fill="#F6F6F6"/>
</svg>
