<svg width="158" height="40" viewBox="0 0 158 40" fill="none" xmlns="http://www.w3.org/2000/svg">
<g clip-path="url(#clip0)">
<path d="M115.891 15.7974C113.904 14.8608 109.884 13.3752 107.349 12.4587C106.063 11.9948 105.888 11.2285 105.929 10.7826C106.07 9.35073 108.967 8.19898 112.156 9.3216C113.494 9.7767 114.69 10.5739 115.624 11.6341L115.705 11.5198L120.032 6.72231C118.571 5.27925 115.551 2.85026 111.327 2.43123C105.256 1.82847 99.1616 4.3695 98.5767 10.2493C98.1286 14.7308 100.768 17.2069 104.096 18.4931C107.298 19.7345 109.72 20.6846 111.524 21.4061C112.985 22.0178 113.005 22.6183 112.985 22.9612C112.911 24.2675 111.159 25.0877 109.176 24.9779C104.47 24.7112 102.435 20.5501 102.435 20.5501L97.8193 25.5179C99.0183 27.1911 100.562 28.5876 102.347 29.6131C104.132 30.6386 106.116 31.2693 108.165 31.4627C113.767 32.0184 120.326 29.5199 120.949 23.3309C121.341 19.3468 118.031 16.8058 115.891 15.7974Z" fill="#D6073D"/>
<path d="M47.3706 2.33496C44.4809 2.33452 41.6559 3.19105 39.253 4.79623C36.8501 6.40141 34.9771 8.68313 33.8711 11.3528C32.765 14.0225 32.4755 16.9602 33.0392 19.7945C33.6028 22.6287 34.9943 25.2321 37.0377 27.2755C39.081 29.3188 41.6845 30.7103 44.5187 31.274C47.3529 31.8377 50.2907 31.5481 52.9604 30.4421C55.63 29.336 57.9118 27.4631 59.5169 25.0602C61.1221 22.6573 61.9787 19.8323 61.9782 16.9425C61.9782 13.0684 60.4392 9.35288 57.6997 6.61342C54.9603 3.87397 51.2448 2.33496 47.3706 2.33496ZM47.3706 24.2475C45.9258 24.2598 44.5098 23.8434 43.3017 23.051C42.0935 22.2586 41.1475 21.1256 40.5833 19.7955C40.019 18.4654 39.8619 16.9978 40.1318 15.5784C40.4016 14.159 41.0864 12.8515 42.0994 11.8212C43.1124 10.791 44.4082 10.0843 45.8228 9.7905C47.2375 9.49672 48.7075 9.62906 50.047 10.1708C51.3864 10.7125 52.5351 11.6393 53.3479 12.8339C54.1606 14.0285 54.6008 15.4372 54.6128 16.882V16.9425C54.6205 18.8714 53.862 20.7245 52.504 22.0943C51.1459 23.4641 49.2995 24.2386 47.3706 24.2475Z" fill="#D6073D"/>
<path d="M138.669 2.33496C135.779 2.33452 132.954 3.19105 130.551 4.79623C128.148 6.40141 126.275 8.68313 125.169 11.3528C124.063 14.0225 123.773 16.9602 124.337 19.7945C124.901 22.6287 126.292 25.2321 128.336 27.2755C130.379 29.3188 132.982 30.7103 135.817 31.274C138.651 31.8377 141.589 31.5481 144.258 30.4421C146.928 29.336 149.21 27.4631 150.815 25.0602C152.42 22.6573 153.277 19.8323 153.276 16.9425C153.276 15.0243 152.898 13.1247 152.164 11.3525C151.43 9.58019 150.354 7.96986 148.998 6.61342C147.641 5.25698 146.031 4.181 144.259 3.4469C142.486 2.7128 140.587 2.33496 138.669 2.33496ZM138.669 24.2475C137.224 24.2598 135.808 23.8434 134.6 23.051C133.391 22.2586 132.445 21.1256 131.881 19.7955C131.317 18.4654 131.16 16.9978 131.43 15.5784C131.7 14.159 132.384 12.8515 133.397 11.8212C134.41 10.791 135.706 10.0843 137.121 9.7905C138.535 9.49672 140.005 9.62906 141.345 10.1708C142.684 10.7125 143.833 11.6393 144.646 12.8339C145.459 14.0285 145.899 15.4372 145.911 16.882V16.9425C145.915 17.8977 145.731 18.8444 145.369 19.7284C145.007 20.6125 144.475 21.4166 143.803 22.0949C143.13 22.7733 142.331 23.3125 141.45 23.6818C140.569 24.0511 139.624 24.2433 138.669 24.2475Z" fill="#D6073D"/>
<path d="M80.2382 2.33505C76.3641 2.33505 72.6486 3.87406 69.9091 6.61351C67.1697 9.35296 65.6306 13.0685 65.6306 16.9426V38.8551H72.9356V29.5918C74.8764 30.7127 77.049 31.3721 79.2854 31.5188C81.5219 31.6656 83.7621 31.2959 85.8327 30.4383C87.9034 29.5807 89.749 28.2582 91.2267 26.5732C92.7044 24.8881 93.7747 22.8857 94.3546 20.7208C94.9345 18.5558 95.0086 16.2865 94.5711 14.0884C94.1336 11.8903 93.1962 9.82232 91.8316 8.04447C90.4669 6.26662 88.7114 4.82658 86.7011 3.83576C84.6908 2.84495 82.4795 2.32993 80.2382 2.33057V2.33505ZM80.2382 24.2475C78.7934 24.2599 77.3774 23.8435 76.1693 23.0511C74.9611 22.2586 74.0151 21.1257 73.4509 19.7956C72.8866 18.4655 72.7295 16.9979 72.9994 15.5785C73.2693 14.1591 73.954 12.8516 74.967 11.8213C75.98 10.7911 77.2758 10.0844 78.6904 9.79058C80.1051 9.4968 81.5751 9.62914 82.9146 10.1709C84.254 10.7126 85.4027 11.6393 86.2155 12.8339C87.0282 14.0285 87.4684 15.4373 87.4804 16.8821V16.9426C87.4845 17.8978 87.3005 18.8444 86.9388 19.7285C86.577 20.6125 86.0447 21.4167 85.3722 22.095C84.6997 22.7733 83.9002 23.3126 83.0193 23.6819C82.1384 24.0512 81.1934 24.2434 80.2382 24.2475Z" fill="#D6073D"/>
<path d="M14.5007 2.33505C10.6265 2.33505 6.91104 3.87406 4.17159 6.61351C1.43214 9.35296 -0.106873 13.0685 -0.106873 16.9426V38.8551H7.1958V29.5918C9.13652 30.7126 11.3091 31.372 13.5454 31.5188C15.7817 31.6657 18.0219 31.296 20.0925 30.4386C22.1631 29.5811 24.0087 28.2587 25.4864 26.5738C26.9642 24.8889 28.0345 22.8866 28.6146 20.7218C29.1946 18.5571 29.2689 16.2879 28.8316 14.0898C28.3944 11.8917 27.4573 9.82374 26.0928 8.0458C24.7284 6.26787 22.9732 4.82767 20.9631 3.83663C18.953 2.84559 16.7419 2.33028 14.5007 2.33057V2.33505ZM14.5007 24.2475C13.0559 24.2599 11.6399 23.8435 10.4318 23.0511C9.22361 22.2586 8.2776 21.1257 7.71336 19.7956C7.14912 18.4655 6.992 16.9979 7.26187 15.5785C7.53173 14.1591 8.21647 12.8516 9.22948 11.8213C10.2425 10.7911 11.5383 10.0844 12.9529 9.79058C14.3676 9.4968 15.8376 9.62914 17.1771 10.1709C18.5165 10.7126 19.6652 11.6393 20.4779 12.8339C21.2907 14.0285 21.7309 15.4373 21.7429 16.8821V16.9426C21.747 17.8978 21.563 18.8444 21.2012 19.7285C20.8395 20.6125 20.3072 21.4167 19.6347 22.095C18.9622 22.7733 18.1627 23.3126 17.2818 23.6819C16.4009 24.0512 15.4559 24.2434 14.5007 24.2475Z" fill="#D6073D"/>
</g>
<defs>
<clipPath id="clip0">
<rect width="157.916" height="40" fill="white"/>
</clipPath>
</defs>
</svg>
