<svg width="175" height="145" viewBox="0 0 175 145" fill="none" xmlns="http://www.w3.org/2000/svg">
<g clip-path="url(#clip0)">
<path d="M72.1079 34.1208H71.3133V12.5086C71.3133 10.8659 70.9875 9.23935 70.3543 7.72174C69.7212 6.20413 68.7932 4.82519 67.6234 3.66366C66.4535 2.50213 65.0647 1.58076 63.5362 0.952148C62.0077 0.323535 60.3695 -5.13907e-06 58.715 0H12.5983C10.9439 -5.13907e-06 9.30564 0.323535 7.77714 0.952148C6.24864 1.58076 4.85981 2.50214 3.68995 3.66366C2.52009 4.82519 1.59211 6.20413 0.958982 7.72174C0.325859 9.23935 -2.58799e-06 10.8659 0 12.5086V131.075C-1.55279e-06 132.717 0.325862 134.344 0.958985 135.862C1.59211 137.379 2.5201 138.758 3.68996 139.92C4.85982 141.081 6.24864 142.003 7.77714 142.631C9.30564 143.26 10.9439 143.583 12.5983 143.583H58.715C60.3695 143.583 62.0077 143.26 63.5362 142.631C65.0647 142.003 66.4535 141.081 67.6234 139.92C68.7932 138.758 69.7212 137.379 70.3543 135.862C70.9875 134.344 71.3133 132.717 71.3133 131.075V49.5047H72.1079V34.1208Z" fill="#E6E6E6"/>
<path d="M59.2237 3.25439H53.2039C53.4807 3.92827 53.5864 4.65939 53.5116 5.38337C53.4368 6.10734 53.1838 6.80194 52.775 7.40598C52.3661 8.01002 51.8139 8.50496 51.1671 8.8472C50.5202 9.18943 49.7984 9.36846 49.0654 9.36852H22.6457C21.9128 9.36846 21.191 9.18943 20.5441 8.8472C19.8972 8.50496 19.345 8.01002 18.9362 7.40598C18.5273 6.80194 18.2744 6.10734 18.1996 5.38337C18.1248 4.65939 18.2305 3.92827 18.5073 3.25439H12.8848C11.6493 3.25439 10.4259 3.49601 9.28444 3.96545C8.14298 4.43489 7.10582 5.12296 6.23218 5.99037C5.35854 6.85779 4.66554 7.88756 4.19273 9.02089C3.71992 10.1542 3.47656 11.3689 3.47656 12.5956V130.988C3.47656 132.215 3.71992 133.429 4.19273 134.563C4.66554 135.696 5.35854 136.726 6.23218 137.593C7.10582 138.461 8.14297 139.149 9.28444 139.618C10.4259 140.088 11.6493 140.329 12.8848 140.329H59.2237C60.4592 140.329 61.6826 140.088 62.824 139.618C63.9655 139.149 65.0027 138.461 65.8763 137.593C66.7499 136.726 67.4429 135.696 67.9158 134.563C68.3886 133.429 68.6319 132.215 68.6319 130.988V12.5956C68.6319 11.3689 68.3886 10.1542 67.9158 9.02089C67.4429 7.88756 66.7499 6.85779 65.8763 5.99037C65.0027 5.12296 63.9655 4.43489 62.824 3.96545C61.6826 3.49601 60.4592 3.25439 59.2237 3.25439Z" fill="white"/>
<path d="M22.4021 27.3223H19.6354C19.5381 27.3223 19.4448 27.3606 19.376 27.4289C19.3072 27.4972 19.2686 27.5899 19.2686 27.6865V28.8922C19.2686 28.9888 19.3072 29.0815 19.376 29.1498C19.4448 29.2181 19.5381 29.2564 19.6354 29.2564H20.0939V31.0631H21.9436V29.2564H22.4021C22.4994 29.2564 22.5927 29.2181 22.6615 29.1498C22.7303 29.0815 22.7689 28.9888 22.7689 28.8922V27.6865C22.7689 27.5899 22.7303 27.4972 22.6615 27.4289C22.5927 27.3606 22.4994 27.3223 22.4021 27.3223Z" fill="#E6E6E6"/>
<path d="M25.1734 38.3571C23.4789 35.8954 22.6127 32.9643 22.6988 29.9838C22.7003 29.915 22.6778 29.8478 22.6351 29.7936C22.5925 29.7395 22.5322 29.7016 22.4646 29.6865V29.1655H19.5425V29.6793H19.5023C19.4228 29.6794 19.3465 29.7109 19.2904 29.7668C19.2342 29.8227 19.2027 29.8984 19.2028 29.9774C19.2028 29.9846 19.2031 29.9918 19.2037 29.999C19.4339 33.1852 18.6565 36.0424 16.8716 38.5708C16.7689 38.7161 16.7165 38.8906 16.7221 39.068L17.0416 48.8811C17.0493 49.0999 17.1418 49.3074 17.2999 49.4602C17.4579 49.6129 17.6693 49.6992 17.8899 49.7009H24.4991C24.7222 49.6991 24.9358 49.6109 25.0943 49.4551C25.2529 49.2992 25.3438 49.0881 25.3479 48.8666L25.471 39.3389C25.4747 38.9892 25.3708 38.6467 25.1734 38.3571Z" fill="#E6E6E6"/>
<path d="M24.1267 41.6167H18.3738C18.2887 41.6167 18.2045 41.635 18.1272 41.6703C18.0498 41.7056 17.981 41.7571 17.9256 41.8213C17.8701 41.8855 17.8293 41.9608 17.8059 42.0421C17.7825 42.1234 17.7771 42.2087 17.7901 42.2923L18.6594 47.9027H23.6513L24.7072 42.3112C24.7232 42.2265 24.7202 42.1394 24.6984 42.0559C24.6766 41.9725 24.6366 41.8949 24.5812 41.8286C24.5258 41.7623 24.4563 41.7089 24.3777 41.6723C24.2992 41.6357 24.2135 41.6167 24.1267 41.6167Z" fill="white"/>
<path d="M53.2009 56.7183H50.4342C50.3369 56.7183 50.2436 56.7566 50.1748 56.8249C50.106 56.8932 50.0674 56.9859 50.0674 57.0825V58.2882C50.0674 58.3848 50.106 58.4775 50.1748 58.5458C50.2436 58.6141 50.3369 58.6524 50.4342 58.6524H50.8927V60.4591H52.7425V58.6524H53.2009C53.2982 58.6524 53.3915 58.614 53.4603 58.5457C53.5291 58.4774 53.5678 58.3848 53.5678 58.2882V57.0825C53.5678 56.9859 53.5291 56.8932 53.4603 56.8249C53.3915 56.7566 53.2982 56.7183 53.2009 56.7183Z" fill="#E6E6E6"/>
<path d="M55.9722 67.7536C54.2778 65.2919 53.4115 62.3608 53.4976 59.3803C53.4991 59.3115 53.4767 59.2443 53.434 59.1901C53.3913 59.1359 53.331 59.0981 53.2634 59.083V58.562H50.3414V59.0758H50.3011C50.2617 59.0758 50.2228 59.0836 50.1864 59.0986C50.15 59.1136 50.117 59.1356 50.0892 59.1632C50.0614 59.1909 50.0394 59.2238 50.0243 59.2599C50.0093 59.296 50.0016 59.3348 50.0017 59.3739C50.0017 59.3811 50.002 59.3883 50.0025 59.3955C50.2327 62.5817 49.4554 65.4389 47.6705 67.9673C47.5678 68.1126 47.5153 68.2871 47.5209 68.4645L47.8404 78.2775C47.8481 78.4964 47.9406 78.7039 48.0987 78.8567C48.2567 79.0094 48.4681 79.0957 48.6887 79.0974H55.298C55.521 79.0956 55.7346 79.0074 55.8932 78.8516C56.0517 78.6957 56.1427 78.4846 56.1467 78.2631L56.2699 68.7354C56.2735 68.3857 56.1697 68.0432 55.9722 67.7536Z" fill="#E6E6E6"/>
<path d="M54.9265 71.0132H49.1736C49.0885 71.0132 49.0043 71.0315 48.927 71.0668C48.8496 71.1021 48.7808 71.1536 48.7254 71.2178C48.6699 71.2819 48.6291 71.3573 48.6057 71.4386C48.5823 71.5199 48.5769 71.6052 48.5899 71.6888L49.4592 77.2992H54.4511L55.507 71.7077C55.523 71.623 55.52 71.5358 55.4982 71.4524C55.4764 71.369 55.4364 71.2914 55.381 71.2251C55.3255 71.1588 55.2561 71.1054 55.1775 71.0688C55.099 71.0322 55.0133 71.0132 54.9265 71.0132H54.9265Z" fill="white"/>
<path d="M18.5118 98.2759H17.1994C17.1532 98.2759 17.109 98.2941 17.0764 98.3265C17.0437 98.3589 17.0254 98.4028 17.0254 98.4486V99.0206C17.0254 99.0664 17.0437 99.1104 17.0764 99.1428C17.109 99.1752 17.1532 99.1934 17.1994 99.1934H17.4169V100.05H18.2943V99.1934H18.5118C18.5579 99.1934 18.6022 99.1752 18.6348 99.1428C18.6674 99.1104 18.6858 99.0664 18.6858 99.0206V98.4486C18.6858 98.4028 18.6674 98.3589 18.6348 98.3265C18.6022 98.2941 18.5579 98.2759 18.5118 98.2759Z" fill="#E6E6E6"/>
<path d="M19.8264 103.51C19.0226 102.343 18.6118 100.952 18.6526 99.5385C18.6533 99.5059 18.6427 99.474 18.6224 99.4483C18.6022 99.4226 18.5736 99.4047 18.5415 99.3975V99.1504H17.1554V99.3941H17.1363C17.1177 99.3941 17.0992 99.3978 17.0819 99.4049C17.0647 99.412 17.049 99.4225 17.0358 99.4356C17.0226 99.4487 17.0122 99.4643 17.0051 99.4814C16.9979 99.4986 16.9943 99.5169 16.9943 99.5355C16.9943 99.5389 16.9944 99.5423 16.9947 99.5458C17.1226 100.988 16.7306 102.429 15.8885 103.612C15.8398 103.681 15.8149 103.763 15.8176 103.848L15.9691 108.502C15.9728 108.606 16.0167 108.705 16.0916 108.777C16.1666 108.85 16.2669 108.89 16.3715 108.891H19.5066C19.6124 108.89 19.7137 108.849 19.7889 108.775C19.8641 108.701 19.9073 108.601 19.9092 108.495L19.9676 103.976C19.9693 103.81 19.9201 103.648 19.8264 103.51Z" fill="#E6E6E6"/>
<path d="M19.3752 105.222H16.3838V106.707H19.3752V105.222Z" fill="white"/>
<path d="M24.6212 98.2759H23.3088C23.2626 98.2759 23.2184 98.2941 23.1857 98.3265C23.1531 98.3589 23.1348 98.4028 23.1348 98.4486V99.0206C23.1348 99.0664 23.1531 99.1104 23.1857 99.1428C23.2184 99.1752 23.2626 99.1934 23.3088 99.1934H23.5262V100.05H24.4037V99.1934H24.6212C24.6673 99.1934 24.7116 99.1752 24.7442 99.1428C24.7768 99.1104 24.7952 99.0664 24.7952 99.0206V98.4486C24.7952 98.4028 24.7768 98.3589 24.7442 98.3265C24.7116 98.2941 24.6673 98.2759 24.6212 98.2759Z" fill="#E6E6E6"/>
<path d="M25.9358 103.51C25.132 102.343 24.7211 100.952 24.762 99.5385C24.7627 99.5059 24.752 99.474 24.7318 99.4483C24.7115 99.4226 24.683 99.4047 24.6509 99.3975V99.1504H23.2648V99.3941H23.2457C23.227 99.3941 23.2086 99.3978 23.1913 99.4049C23.1741 99.412 23.1584 99.4225 23.1452 99.4356C23.132 99.4487 23.1216 99.4643 23.1144 99.4814C23.1073 99.4986 23.1037 99.5169 23.1037 99.5355C23.1037 99.5389 23.1038 99.5423 23.1041 99.5458C23.232 100.988 22.84 102.429 21.9979 103.612C21.9492 103.681 21.9243 103.763 21.927 103.848L22.0785 108.502C22.0821 108.606 22.126 108.705 22.201 108.777C22.276 108.85 22.3762 108.89 22.4809 108.891H25.6159C25.7218 108.89 25.8231 108.849 25.8983 108.775C25.9735 108.701 26.0166 108.601 26.0186 108.495L26.077 103.976C26.0787 103.81 26.0294 103.648 25.9358 103.51Z" fill="#E6E6E6"/>
<path d="M25.4845 105.222H22.4932V106.707H25.4845V105.222Z" fill="white"/>
<path d="M30.7305 98.2759H29.4181C29.372 98.2759 29.3277 98.2941 29.2951 98.3265C29.2625 98.3589 29.2441 98.4028 29.2441 98.4486V99.0206C29.2441 99.0664 29.2625 99.1104 29.2951 99.1428C29.3277 99.1752 29.372 99.1934 29.4181 99.1934H29.6356V100.05H30.513V99.1934H30.7305C30.7767 99.1934 30.8209 99.1752 30.8536 99.1428C30.8862 99.1104 30.9045 99.0664 30.9045 99.0206V98.4486C30.9045 98.4028 30.8862 98.3589 30.8536 98.3265C30.8209 98.2941 30.7767 98.2759 30.7305 98.2759Z" fill="#E6E6E6"/>
<path d="M32.0451 103.51C31.2414 102.343 30.8305 100.952 30.8713 99.5385C30.8721 99.5059 30.8614 99.474 30.8411 99.4483C30.8209 99.4226 30.7923 99.4047 30.7603 99.3975V99.1504H29.3742V99.3941H29.3551C29.3364 99.3941 29.3179 99.3978 29.3007 99.4049C29.2834 99.412 29.2678 99.4225 29.2546 99.4356C29.2414 99.4487 29.2309 99.4643 29.2238 99.4814C29.2167 99.4986 29.213 99.5169 29.2131 99.5355C29.2131 99.5389 29.2132 99.5423 29.2135 99.5458C29.3414 100.988 28.9494 102.429 28.1073 103.612C28.0585 103.681 28.0337 103.763 28.0363 103.848L28.1879 108.502C28.1915 108.606 28.2354 108.705 28.3104 108.777C28.3854 108.85 28.4856 108.89 28.5902 108.891H31.7253C31.8311 108.89 31.9324 108.849 32.0076 108.775C32.0829 108.701 32.126 108.601 32.1279 108.495L32.1863 103.976C32.1881 103.81 32.1388 103.648 32.0451 103.51Z" fill="#E6E6E6"/>
<path d="M31.5939 105.222H28.6025V106.707H31.5939V105.222Z" fill="white"/>
<path d="M48.3943 86.9038H45.6276C45.5794 86.9038 45.5317 86.9132 45.4872 86.9315C45.4427 86.9498 45.4022 86.9767 45.3682 87.0105C45.3341 87.0443 45.3071 87.0845 45.2887 87.1286C45.2702 87.1728 45.2607 87.2202 45.2607 87.268V88.4738C45.2607 88.5704 45.2994 88.663 45.3682 88.7313C45.437 88.7996 45.5303 88.838 45.6276 88.838H46.0861V90.6446H47.9358V88.838H48.3943C48.4916 88.838 48.5849 88.7996 48.6537 88.7313C48.7225 88.663 48.7611 88.5704 48.7611 88.4738V87.268C48.7611 87.2202 48.7516 87.1728 48.7332 87.1286C48.7148 87.0845 48.6877 87.0443 48.6537 87.0105C48.6196 86.9767 48.5792 86.9498 48.5347 86.9315C48.4902 86.9132 48.4425 86.9038 48.3943 86.9038Z" fill="#E6E6E6"/>
<path d="M51.1655 97.9387C49.4711 95.4769 48.6049 92.5458 48.6909 89.5653C48.6925 89.4965 48.67 89.4294 48.6273 89.3752C48.5846 89.321 48.5244 89.2831 48.4568 89.2681V88.7471H45.5347V89.2608H45.4945C45.4551 89.2609 45.4161 89.2686 45.3798 89.2836C45.3434 89.2987 45.3104 89.3206 45.2826 89.3483C45.2548 89.376 45.2327 89.4088 45.2177 89.445C45.2027 89.4811 45.195 89.5198 45.195 89.5589C45.195 89.5661 45.1953 89.5734 45.1959 89.5806C45.4261 92.7667 44.6487 95.624 42.8638 98.1524C42.7611 98.2977 42.7086 98.4721 42.7143 98.6496L43.0338 108.463C43.0415 108.681 43.134 108.889 43.292 109.042C43.4501 109.195 43.6615 109.281 43.8821 109.283H50.4913C50.7144 109.281 50.928 109.192 51.0865 109.037C51.245 108.881 51.336 108.67 51.3401 108.448L51.4632 98.9205C51.4668 98.5708 51.363 98.2283 51.1655 97.9387Z" fill="#E6E6E6"/>
<path d="M50.1189 101.199H44.366C44.2809 101.199 44.1967 101.217 44.1193 101.252C44.042 101.288 43.9732 101.339 43.9178 101.403C43.8623 101.467 43.8215 101.543 43.7981 101.624C43.7747 101.705 43.7693 101.791 43.7823 101.874L44.6516 107.485H49.6434L50.6994 101.893C50.7154 101.809 50.7124 101.721 50.6906 101.638C50.6688 101.555 50.6288 101.477 50.5734 101.411C50.5179 101.344 50.4485 101.291 50.3699 101.254C50.2914 101.218 50.2056 101.199 50.1189 101.199Z" fill="white"/>
<path d="M49.9046 50.9641H33.4121C34.5652 44.7745 34.2999 37.3002 33.4121 29.2622H49.9046C49.0405 37.3002 48.7822 44.7745 49.9046 50.9641Z" fill="#E6E6E6"/>
<path d="M41.7583 43.4673C43.9531 43.4673 45.7324 41.7007 45.7324 39.5215C45.7324 37.3423 43.9531 35.5757 41.7583 35.5757C39.5634 35.5757 37.7842 37.3423 37.7842 39.5215C37.7842 41.7007 39.5634 43.4673 41.7583 43.4673Z" fill="white"/>
<path d="M34.8031 79.7688H18.3105C19.4636 73.5791 19.1983 66.1049 18.3105 58.0669H34.8031C33.9389 66.1049 33.6807 73.5791 34.8031 79.7688Z" fill="#E6E6E6"/>
<path d="M26.6567 72.2715C28.8516 72.2715 30.6308 70.5049 30.6308 68.3257C30.6308 66.1465 28.8516 64.3799 26.6567 64.3799C24.4619 64.3799 22.6826 66.1465 22.6826 68.3257C22.6826 70.5049 24.4619 72.2715 26.6567 72.2715Z" fill="white"/>
<path d="M59.2435 52.3454H42.751C43.904 46.1558 43.6388 38.6816 42.751 30.6436H59.2435C58.3793 38.6816 58.1211 46.1558 59.2435 52.3454Z" fill="#E6E6E6"/>
<path d="M51.0971 44.8486C53.292 44.8486 55.0712 43.082 55.0712 40.9028C55.0712 38.7236 53.292 36.957 51.0971 36.957C48.9023 36.957 47.123 38.7236 47.123 40.9028C47.123 43.082 48.9023 44.8486 51.0971 44.8486Z" fill="white"/>
<path d="M59.2435 51.3591H42.751C43.904 45.1695 43.6388 37.6952 42.751 29.6572H59.2435C58.3793 37.6953 58.1211 45.1695 59.2435 51.3591Z" fill="#E6E6E6"/>
<path d="M51.0971 43.8618C53.292 43.8618 55.0712 42.0952 55.0712 39.916C55.0712 37.7368 53.292 35.9702 51.0971 35.9702C48.9023 35.9702 47.123 37.7368 47.123 39.916C47.123 42.0952 48.9023 43.8618 51.0971 43.8618Z" fill="white"/>
<path d="M59.2435 52.3454H42.751C43.904 46.1558 43.6388 38.6816 42.751 30.6436H59.2435C58.3793 38.6816 58.1211 46.1558 59.2435 52.3454Z" fill="#E6E6E6"/>
<path d="M51.0971 44.8486C53.292 44.8486 55.0712 43.082 55.0712 40.9028C55.0712 38.7236 53.292 36.957 51.0971 36.957C48.9023 36.957 47.123 38.7236 47.123 40.9028C47.123 43.082 48.9023 44.8486 51.0971 44.8486Z" fill="white"/>
<path d="M63.0194 49.7808H8.97168V55.6995H63.0194V49.7808Z" fill="#E6E6E6"/>
<path d="M63.0194 79.1768H8.97168V85.0955H63.0194V79.1768Z" fill="#E6E6E6"/>
<path d="M63.0194 108.573H8.97168V114.492H63.0194V108.573Z" fill="#E6E6E6"/>
<path d="M157.038 132.585L143.573 123.129C148.114 118.737 152.245 112.483 156.195 105.411L169.66 114.867C164.279 120.934 159.722 126.888 157.038 132.585Z" fill="#BD0D22"/>
<path d="M157.041 122.518C159.236 122.518 161.016 120.751 161.016 118.572C161.016 116.393 159.236 114.626 157.041 114.626C154.847 114.626 153.067 116.393 153.067 118.572C153.067 120.751 154.847 122.518 157.041 122.518Z" fill="white"/>
<path d="M92.0851 89.436H90.6071C90.5551 89.436 90.5053 89.4565 90.4685 89.493C90.4318 89.5295 90.4111 89.579 90.4111 89.6306V90.2747C90.4111 90.3003 90.4162 90.3256 90.426 90.3492C90.4359 90.3728 90.4503 90.3943 90.4685 90.4123C90.4867 90.4304 90.5083 90.4447 90.5321 90.4545C90.5559 90.4643 90.5814 90.4693 90.6071 90.4693H90.852V91.4344H91.8402V90.4693H92.0851C92.1371 90.4693 92.1869 90.4488 92.2237 90.4123C92.2604 90.3758 92.2811 90.3263 92.2811 90.2747V89.6306C92.2811 89.579 92.2604 89.5295 92.2237 89.493C92.1869 89.4565 92.1371 89.436 92.0851 89.436Z" fill="#E6E6E6"/>
<path d="M93.5648 95.3312C92.6596 94.0161 92.1969 92.4502 92.2429 90.858C92.2437 90.8213 92.2317 90.7854 92.2089 90.7564C92.1861 90.7275 92.1539 90.7073 92.1178 90.6992V90.4209H90.5568V90.6954H90.5352C90.5142 90.6954 90.4934 90.6995 90.474 90.7075C90.4545 90.7156 90.4369 90.7273 90.422 90.7421C90.4072 90.7569 90.3954 90.7744 90.3874 90.7937C90.3794 90.813 90.3753 90.8337 90.3753 90.8546C90.3753 90.8585 90.3754 90.8623 90.3757 90.8662C90.5198 92.4909 90.0783 94.1136 89.1299 95.4454C89.075 95.523 89.047 95.6162 89.05 95.711L89.2207 100.953C89.2248 101.07 89.2742 101.181 89.3587 101.263C89.4431 101.344 89.556 101.39 89.6739 101.391H93.2046C93.3238 101.39 93.4379 101.343 93.5226 101.26C93.6073 101.177 93.6559 101.064 93.6581 100.946L93.7238 95.8557C93.7258 95.6689 93.6703 95.4859 93.5648 95.3312Z" fill="#BD0D22"/>
<path opacity="0.2" d="M91.7762 89.646C91.7762 89.7573 91.7317 89.8641 91.6524 89.9428C91.5731 90.0215 91.4656 90.0658 91.3534 90.0658C91.2413 90.0658 91.1338 90.0215 91.0545 89.9428C90.9752 89.8641 90.9307 89.7573 90.9307 89.646" fill="black"/>
<path d="M92.8771 96.3408H89.8965V98.3137H92.8771V96.3408Z" fill="white"/>
<path d="M138.857 109.916H136.09C135.993 109.916 135.9 109.954 135.831 110.022C135.762 110.091 135.724 110.183 135.724 110.28V111.485C135.724 111.582 135.762 111.675 135.831 111.743C135.9 111.811 135.993 111.85 136.09 111.85H136.549V113.656H138.399V111.85H138.857C138.954 111.85 139.048 111.811 139.117 111.743C139.185 111.675 139.224 111.582 139.224 111.485V110.28C139.224 110.183 139.185 110.091 139.117 110.022C139.048 109.954 138.954 109.916 138.857 109.916Z" fill="#E6E6E6"/>
<path d="M141.628 120.95C139.934 118.489 139.068 115.558 139.154 112.577C139.155 112.508 139.133 112.441 139.09 112.387C139.048 112.333 138.987 112.295 138.92 112.28V111.759H135.998V112.273H135.957C135.918 112.273 135.879 112.28 135.843 112.295C135.806 112.31 135.773 112.332 135.745 112.36C135.718 112.388 135.696 112.421 135.681 112.457C135.666 112.493 135.658 112.532 135.658 112.571C135.658 112.578 135.658 112.585 135.659 112.592C135.889 115.778 135.112 118.636 133.327 121.164C133.224 121.309 133.172 121.484 133.177 121.661L133.497 131.474C133.504 131.693 133.597 131.901 133.755 132.053C133.913 132.206 134.124 132.292 134.345 132.294H140.954C141.177 132.292 141.391 132.204 141.549 132.048C141.708 131.892 141.799 131.681 141.803 131.46L141.926 121.932C141.93 121.582 141.826 121.24 141.628 120.95Z" fill="#BD0D22"/>
<path opacity="0.2" d="M138.28 110.308C138.28 110.517 138.197 110.716 138.048 110.864C137.9 111.011 137.699 111.094 137.489 111.094C137.279 111.094 137.077 111.011 136.929 110.864C136.781 110.716 136.697 110.517 136.697 110.308" fill="black"/>
<path d="M140.582 124.21H134.829C134.744 124.21 134.66 124.228 134.582 124.264C134.505 124.299 134.436 124.35 134.381 124.415C134.325 124.479 134.284 124.554 134.261 124.635C134.238 124.717 134.232 124.802 134.245 124.886L135.114 130.496H140.106L141.162 124.904C141.178 124.82 141.175 124.733 141.153 124.649C141.132 124.566 141.092 124.488 141.036 124.422C140.981 124.356 140.911 124.302 140.833 124.266C140.754 124.229 140.669 124.21 140.582 124.21Z" fill="white"/>
<path d="M130.963 132.57H114.471C115.624 126.38 115.358 118.906 114.471 110.868H130.963C130.099 118.906 129.841 126.38 130.963 132.57Z" fill="#BD0D22"/>
<path d="M122.816 125.072C125.011 125.072 126.79 123.306 126.79 121.126C126.79 118.947 125.011 117.181 122.816 117.181C120.621 117.181 118.842 118.947 118.842 121.126C118.842 123.306 120.621 125.072 122.816 125.072Z" fill="white"/>
<path d="M63.5049 64.2707L67.2073 63.9365L69.5635 58.2554L65.3562 55.916L63.5049 64.2707Z" fill="#FFB8B8"/>
<path d="M97.4836 79.8668C97.6067 79.562 97.655 79.2325 97.6247 78.9054C97.5944 78.5784 97.4862 78.2632 97.3091 77.9858C97.132 77.7084 96.8911 77.4767 96.6061 77.3099C96.3211 77.1431 96.0003 77.0459 95.6701 77.0264L89.9216 76.686L89.0752 79.4806L94.993 81.0943C95.4875 81.2291 96.0147 81.1785 96.474 80.9521C96.9334 80.7258 97.2927 80.3394 97.4836 79.8668Z" fill="#FFB8B8"/>
<path d="M91.3108 81.1414L91.2475 75.8976L78.4787 73.8746L68.6418 62.6731C68.13 62.0903 67.4227 61.7114 66.6511 61.6066C65.8795 61.5019 65.0959 61.6783 64.4453 62.1033C64.0513 62.3606 63.7191 62.7007 63.4722 63.0995C63.2252 63.4983 63.0694 63.9461 63.0159 64.4113C62.9624 64.8764 63.0125 65.3475 63.1625 65.7914C63.3126 66.2352 63.559 66.6409 63.8843 66.9798L71.9997 76.8958L91.3108 81.1414Z" fill="#6FBC9A"/>
<path d="M60.6445 140.131H64.0104L72.359 102.654L81.0079 114.232L86.0567 139.296H89.2543L88.5811 112.394L77.3055 83.6533H66.1982C63.1628 89.1075 60.7817 94.7298 63.5055 100.53L60.6445 140.131Z" fill="#2F2E41"/>
<path d="M83.9931 142.408C83.9559 142.526 83.9445 142.651 83.9596 142.774C83.9748 142.897 84.0161 143.015 84.0809 143.121C84.1457 143.227 84.2325 143.318 84.3354 143.388C84.4384 143.458 84.5552 143.505 84.6781 143.527L92.9143 144.978C93.2398 145.037 93.5758 144.976 93.859 144.806C94.1422 144.636 94.353 144.369 94.4516 144.056C94.5476 143.756 94.5342 143.432 94.4138 143.142C94.2933 142.851 94.0735 142.612 93.793 142.466C91.982 141.543 90.4234 140.197 89.2508 138.545C88.3456 139.382 87.3338 139.303 86.2595 138.686L85.1199 138.828L83.9931 142.408Z" fill="#2F2E41"/>
<path d="M59.0859 142.408C59.0487 142.526 59.0372 142.651 59.0524 142.774C59.0675 142.897 59.1089 143.015 59.1737 143.121C59.2385 143.227 59.3253 143.318 59.4282 143.388C59.5312 143.458 59.648 143.505 59.7708 143.527L68.0071 144.978C68.3326 145.037 68.6686 144.976 68.9517 144.806C69.2349 144.636 69.4457 144.369 69.5444 144.056C69.6404 143.756 69.627 143.432 69.5066 143.142C69.3861 142.851 69.1663 142.612 68.8858 142.466C67.0748 141.543 65.5162 140.197 64.3436 138.545C63.4384 139.382 62.4266 139.303 61.3522 138.686L60.2127 138.828L59.0859 142.408Z" fill="#2F2E41"/>
<path d="M69.6477 60.3436C72.2502 60.3436 74.3599 58.2489 74.3599 55.665C74.3599 53.081 72.2502 50.9863 69.6477 50.9863C67.0453 50.9863 64.9355 53.081 64.9355 55.665C64.9355 58.2489 67.0453 60.3436 69.6477 60.3436Z" fill="#FFB8B8"/>
<path d="M65.4398 84.9064L77.7252 84.5723L74.1172 73.2979C76.3594 69.7291 74.1029 66.1638 70.9093 62.5994L68.3849 60.9284L64.3459 60.5942C62.5972 62.4521 61.6403 64.9098 61.6758 67.4525C61.7557 72.8973 62.7267 78.8245 65.4398 84.9064Z" fill="#6FBC9A"/>
<path d="M93.6663 92.4956C93.9002 92.2635 94.0753 91.9794 94.177 91.6669C94.2787 91.3543 94.3041 91.0223 94.2512 90.6981C94.1983 90.3739 94.0685 90.0668 93.8726 89.8021C93.6767 89.5375 93.4203 89.3228 93.1245 89.1759L87.9743 86.6177L86.0889 88.8563L90.8902 92.6513C91.2914 92.9684 91.7961 93.1278 92.3081 93.0991C92.8201 93.0704 93.3036 92.8556 93.6663 92.4956Z" fill="#FFB8B8"/>
<path d="M87.487 91.2562L89.5065 86.4105L78.5687 79.5633L73.9631 65.4227C73.7234 64.687 73.2234 64.0624 72.5555 63.6647C71.8876 63.267 71.0972 63.1232 70.3307 63.2598C69.8665 63.3425 69.4264 63.5254 69.0413 63.7956C68.6562 64.0657 68.3356 64.4166 68.1021 64.8233C67.8687 65.2301 67.728 65.6828 67.6901 66.1494C67.6522 66.6161 67.718 67.0853 67.8828 67.5239L71.4151 79.8102L87.487 91.2562Z" fill="#6FBC9A"/>
<path d="M61.9062 53.8272C61.9062 55.6477 63.097 58.467 64.5989 59.6755C65.6095 60.4886 66.945 60.4544 67.4599 59.3413C67.9881 58.1995 69.8089 55.5155 73.0136 53.8272C77.2856 51.5765 71.4986 47.7259 67.4599 48.3131C64.4251 48.7543 61.9062 50.7818 61.9062 53.8272Z" fill="#2F2E41"/>
<path d="M64.7672 51.3205C66.6261 51.3205 68.1331 49.8243 68.1331 47.9786C68.1331 46.1329 66.6261 44.6367 64.7672 44.6367C62.9083 44.6367 61.4014 46.1329 61.4014 47.9786C61.4014 49.8243 62.9083 51.3205 64.7672 51.3205Z" fill="#2F2E41"/>
<path d="M68.6378 46.8092C68.6375 45.9667 68.3165 45.1554 67.7391 44.538C67.1617 43.9206 66.3706 43.5426 65.5244 43.4799C65.608 43.4738 65.6916 43.4673 65.7769 43.4673C66.6695 43.4673 67.5256 43.8194 68.1569 44.4461C68.7881 45.0728 69.1427 45.9228 69.1427 46.8092C69.1427 47.6955 68.7881 48.5455 68.1569 49.1722C67.5256 49.799 66.6695 50.1511 65.7769 50.1511C65.6916 50.1511 65.608 50.1446 65.5244 50.1384C66.3706 50.0757 67.1617 49.6978 67.7391 49.0804C68.3165 48.463 68.6375 47.6517 68.6378 46.8092Z" fill="#2F2E41"/>
<path d="M69.7319 57.3362C70.1502 57.3362 70.4892 56.8873 70.4892 56.3336C70.4892 55.7799 70.1502 55.3311 69.7319 55.3311C69.3137 55.3311 68.9746 55.7799 68.9746 56.3336C68.9746 56.8873 69.3137 57.3362 69.7319 57.3362Z" fill="#FFB8B8"/>
<path d="M165.097 134.003H112.701L101.606 81.9255H92.1367V79.5889H103.513L114.609 131.666H165.097V134.003Z" fill="#3F3D56"/>
<path d="M120.379 143.517C123.165 143.517 125.423 141.275 125.423 138.509C125.423 135.744 123.165 133.502 120.379 133.502C117.594 133.502 115.336 135.744 115.336 138.509C115.336 141.275 117.594 143.517 120.379 143.517Z" fill="#3F3D56"/>
<path d="M158.037 143.517C160.822 143.517 163.08 141.275 163.08 138.509C163.08 135.744 160.822 133.502 158.037 133.502C155.251 133.502 152.993 135.744 152.993 138.509C152.993 141.275 155.251 143.517 158.037 143.517Z" fill="#3F3D56"/>
<path d="M164.142 132.902H113.164L104.169 88.769H172.583C172.932 88.7691 173.277 88.8442 173.594 88.9892C173.911 89.1342 174.193 89.3457 174.42 89.6091C174.646 89.8726 174.813 90.1816 174.908 90.5151C175.003 90.8486 175.025 91.1986 174.971 91.5411L166.529 130.875C166.442 131.441 166.153 131.957 165.715 132.329C165.277 132.701 164.718 132.905 164.142 132.902ZM113.717 132.235H164.142C164.558 132.237 164.961 132.09 165.277 131.821C165.593 131.553 165.802 131.18 165.865 130.772L174.306 91.4374C174.345 91.1903 174.33 90.9376 174.261 90.6969C174.193 90.4562 174.072 90.2331 173.909 90.0429C173.745 89.8528 173.541 89.7002 173.313 89.5955C173.084 89.4908 172.835 89.4367 172.583 89.4367H104.985L113.717 132.235Z" fill="#3F3D56"/>
<path d="M123.074 132.761L117.184 89.1566L117.847 89.0479L123.737 132.652L123.074 132.761Z" fill="#3F3D56"/>
<path d="M155.827 132.426L155.163 132.319L160.882 89.0493L161.545 89.1562L155.827 132.426Z" fill="#3F3D56"/>
<path d="M140.222 89.103H139.55V132.707H140.222V89.103Z" fill="#3F3D56"/>
<path d="M107.604 100.787L107.603 101.455L172.694 101.611L172.696 100.943L107.604 100.787Z" fill="#3F3D56"/>
<path d="M168.103 121.411L110.918 121.799L110.923 122.467L168.107 122.079L168.103 121.411Z" fill="#3F3D56"/>
<path d="M93.1457 82.4258C95.1883 82.4258 96.8442 81.5291 96.8442 80.4229C96.8442 79.3167 95.1883 78.4199 93.1457 78.4199C91.1031 78.4199 89.4473 79.3167 89.4473 80.4229C89.4473 81.5291 91.1031 82.4258 93.1457 82.4258Z" fill="#3F3D56"/>
</g>
<defs>
<clipPath id="clip0">
<rect width="175" height="145" fill="white"/>
</clipPath>
</defs>
</svg>
