<svg width="15" height="19" viewBox="0 0 15 19" fill="none" xmlns="http://www.w3.org/2000/svg">
<path d="M6.088 11.88C6.088 11.08 6.264 10.424 6.616 9.912C6.968 9.384 7.48 8.808 8.152 8.184C8.616 7.752 8.96 7.392 9.184 7.104C9.408 6.8 9.52 6.48 9.52 6.144C9.52 5.68 9.32 5.312 8.92 5.04C8.536 4.752 8.032 4.608 7.408 4.608C6.768 4.608 6.184 4.76 5.656 5.064C5.144 5.368 4.728 5.792 4.408 6.336L0.832 4.416C1.488 3.296 2.416 2.424 3.616 1.8C4.816 1.176 6.264 0.863999 7.96 0.863999C9.864 0.863999 11.392 1.264 12.544 2.064C13.712 2.848 14.296 3.952 14.296 5.376C14.296 6.032 14.184 6.616 13.96 7.128C13.736 7.624 13.464 8.048 13.144 8.4C12.84 8.736 12.44 9.12 11.944 9.552C11.4 10.016 11 10.416 10.744 10.752C10.488 11.072 10.36 11.448 10.36 11.88H6.088ZM8.224 18.216C7.44 18.216 6.792 17.976 6.28 17.496C5.768 17 5.512 16.4 5.512 15.696C5.512 14.976 5.76 14.384 6.256 13.92C6.768 13.456 7.424 13.224 8.224 13.224C9.024 13.224 9.68 13.456 10.192 13.92C10.704 14.384 10.96 14.976 10.96 15.696C10.96 16.4 10.704 17 10.192 17.496C9.68 17.976 9.024 18.216 8.224 18.216Z" fill="white"/>
</svg>
