<svg width="193" height="151" viewBox="0 0 193 151" fill="none" xmlns="http://www.w3.org/2000/svg">
<g clip-path="url(#clip0)">
<path d="M101.454 5.38477H52.3123V59.6303H101.454V5.38477Z" fill="#F2F2F2"/>
<path d="M106.408 0.199463H57.2659V54.445H106.408V0.199463Z" stroke="#3F3D56" stroke-width="2" stroke-miterlimit="10"/>
<path d="M62.4914 48.3252H59.8418V50.9919H62.4914V48.3252Z" fill="#BD0D22"/>
<path d="M66.3188 48.3252H63.6692V50.9919H66.3188V48.3252Z" fill="#3F3D56"/>
<path d="M70.1457 48.3252H67.4961V50.9919H70.1457V48.3252Z" fill="#575A89"/>
<path d="M99.8686 49.4834H89.5647V49.9038H99.8686V49.4834Z" fill="#3F3D56"/>
<path d="M99.8686 50.7446H89.5647V51.1651H99.8686V50.7446Z" fill="#3F3D56"/>
<path d="M99.8686 52.0059H89.5647V52.4263H99.8686V52.0059Z" fill="#3F3D56"/>
<path d="M81.8367 9.77222V14.1597C84.4233 14.1597 86.9518 14.9317 89.1024 16.378C91.2531 17.8243 92.9293 19.88 93.9192 22.2852C94.909 24.6903 95.168 27.3368 94.6634 29.8901C94.1588 32.4434 92.9132 34.7887 91.0842 36.6295L94.1667 39.732C96.6054 37.2776 98.2662 34.1504 98.939 30.7461C99.6118 27.3417 99.2665 23.813 97.9467 20.6061C96.6269 17.3993 94.3919 14.6583 91.5244 12.7299C88.6568 10.8015 85.2855 9.77222 81.8367 9.77222Z" fill="#EEB969"/>
<path d="M94.1667 39.7318L91.0842 36.6294C88.8482 38.8802 85.8776 40.2391 82.7224 40.4545C79.5673 40.6698 76.4415 39.7269 73.9242 37.8004L71.2856 41.2946C74.6426 43.8625 78.8105 45.1192 83.0173 44.8318C87.2242 44.5445 91.1852 42.7327 94.1667 39.7318Z" fill="#575A89"/>
<path d="M68.7588 27.3222C68.7588 23.8313 70.1366 20.4834 72.5892 18.0149C75.0418 15.5465 78.3683 14.1597 81.8368 14.1597V9.77222C78.1865 9.77218 74.6282 10.9251 71.6635 13.0685C68.6988 15.2119 66.4772 18.2377 65.3119 21.7194C64.1465 25.201 64.0962 28.9629 65.168 32.4749C66.2397 35.9869 68.3796 39.0718 71.2858 41.2947L73.9244 37.8005C72.3178 36.5741 71.0154 34.9898 70.1192 33.1718C69.2229 31.3539 68.7573 29.3517 68.7588 27.3222Z" fill="#BD0D22"/>
<path d="M114.556 115.052C113.252 115.052 111.96 114.794 110.755 114.291C109.55 113.789 108.455 113.053 107.533 112.125C106.611 111.196 105.879 110.094 105.38 108.882C104.881 107.669 104.624 106.369 104.624 105.056V93.414C104.624 70.1187 123.388 51.2341 146.533 51.2341H146.533C169.679 51.2341 188.443 70.1187 188.443 93.414V102.567C188.443 104.206 188.122 105.83 187.498 107.345C186.875 108.86 185.961 110.236 184.809 111.395C183.657 112.555 182.289 113.474 180.784 114.102C179.279 114.729 177.666 115.052 176.037 115.052" fill="#F2F2F2"/>
<path d="M180.198 127.617V127.218C183.434 127.214 186.537 125.919 188.826 123.615C191.114 121.312 192.402 118.189 192.405 114.932V91.0209C192.405 67.8728 173.694 49.0405 150.694 49.0405C127.695 49.0405 108.983 67.8728 108.983 91.0209V117.421C108.986 120.019 110.013 122.509 111.838 124.345C113.662 126.182 116.136 127.215 118.717 127.218V127.617C116.031 127.614 113.457 126.538 111.558 124.627C109.658 122.716 108.59 120.124 108.587 117.421V91.0209C108.587 67.6529 127.476 48.6416 150.694 48.6416C173.912 48.6416 192.802 67.6529 192.802 91.0209V114.932C192.798 118.295 191.469 121.519 189.106 123.897C186.743 126.275 183.54 127.613 180.198 127.617Z" fill="#3F3D56"/>
<path d="M193 112.26H108.389V147.36H193V112.26Z" fill="#EEB969"/>
<path d="M163.624 76.182L155.549 81.9597L161.29 90.0869L169.365 84.3091L163.624 76.182Z" fill="#BD0D22"/>
<path d="M164.274 74.0042L156.199 79.782L161.94 87.9091L170.015 82.1314L164.274 74.0042Z" stroke="#3F3D56" stroke-width="2" stroke-miterlimit="10"/>
<path d="M148.614 72.3739C150.912 72.3739 152.775 70.4989 152.775 68.1859C152.775 65.8729 150.912 63.9978 148.614 63.9978C146.316 63.9978 144.453 65.8729 144.453 68.1859C144.453 70.4989 146.316 72.3739 148.614 72.3739Z" fill="#BD0D22"/>
<path d="M147.425 71.7756C149.723 71.7756 151.586 69.9005 151.586 67.5875C151.586 65.2745 149.723 63.3994 147.425 63.3994C145.127 63.3994 143.264 65.2745 143.264 67.5875C143.264 69.9005 145.127 71.7756 147.425 71.7756Z" stroke="#3F3D56" stroke-width="2" stroke-miterlimit="10"/>
<path d="M136.315 84.9221L141.296 87.8073L146.276 90.6925L141.303 93.5909L136.33 96.4892L136.323 90.7057L136.315 84.9221Z" fill="#BD0D22"/>
<path d="M135.515 87.1125L140.495 89.9979L145.476 92.8831L140.503 95.7814L135.53 98.6796L135.522 92.8961L135.515 87.1125Z" stroke="#3F3D56" stroke-width="2" stroke-miterlimit="10"/>
<path d="M116.005 75.5296C116.76 72.8145 118.155 70.3229 120.072 68.2665C121.989 66.2101 124.37 64.6498 127.014 63.7179C127.733 63.469 127.424 62.3128 126.698 62.5641C123.858 63.5552 121.297 65.223 119.236 67.4253C117.174 69.6275 115.673 72.2989 114.859 75.2115C114.655 75.9549 115.801 76.2721 116.005 75.5296V75.5296Z" fill="white"/>
<path d="M113.75 82.0645C114.515 82.0645 114.516 80.8679 113.75 80.8679C112.985 80.8679 112.984 82.0645 113.75 82.0645Z" fill="white"/>
<path d="M64.37 69.7075L45.8606 63.7964L38.6689 86.6074L57.1783 92.5185L64.37 69.7075Z" fill="#F2F2F2"/>
<path d="M55.8424 71.3559L48.5747 69.0349L48.4471 69.4396L55.7148 71.7606L55.8424 71.3559Z" fill="#3F3D56"/>
<path d="M58.9159 73.1598L48.3391 69.782L48.2115 70.1866L58.7883 73.5644L58.9159 73.1598Z" fill="#3F3D56"/>
<path d="M55.0377 73.9082L47.77 71.5872L47.6424 71.9918L54.9102 74.3128L55.0377 73.9082Z" fill="#3F3D56"/>
<path d="M54.0956 76.8965L46.8279 74.5754L46.7003 74.9801L53.968 77.3011L54.0956 76.8965Z" fill="#3F3D56"/>
<path d="M58.1112 75.7123L47.5344 72.3345L47.4069 72.7391L57.9837 76.1169L58.1112 75.7123Z" fill="#3F3D56"/>
<path d="M57.8757 76.4591L47.2988 73.0813L47.1713 73.4859L57.7481 76.8637L57.8757 76.4591Z" fill="#3F3D56"/>
<path d="M57.6403 77.2062L47.0635 73.8284L46.9359 74.233L57.5127 77.6108L57.6403 77.2062Z" fill="#3F3D56"/>
<path d="M50.0627 77.5954L46.2588 76.3806L45.9251 77.4389L49.7291 78.6537L50.0627 77.5954Z" fill="#BD0D22"/>
<path d="M25.9579 151C40.2941 151 51.9158 149.482 51.9158 147.61C51.9158 145.737 40.2941 144.219 25.9579 144.219C11.6218 144.219 0 145.737 0 147.61C0 149.482 11.6218 151 25.9579 151Z" fill="#3F3D56"/>
<path d="M13.6967 53.7522L12.8345 55.8133L13.8045 69.1562C13.8045 69.1562 13.2656 69.9156 13.8045 70.458C14.3434 71.0004 14.2356 71.2173 14.2356 71.2173C14.2356 71.2173 13.3734 71.2173 13.8045 71.8682C14.2356 72.5191 14.2356 72.8445 14.2356 72.8445L14.0201 73.4954C14.0201 73.4954 14.4512 74.0378 14.4512 74.4717C14.4512 74.9056 17.2536 88.2485 17.2536 88.2485L19.9481 82.9331L18.4392 61.7796L13.6967 53.7522Z" fill="#BD0D22"/>
<path d="M41.3658 87.6826C41.3658 87.6826 47.2507 87.4434 49.127 89.5327C51.0033 91.622 41.7554 90.1105 41.2323 89.5219C40.7093 88.9332 41.3658 87.6826 41.3658 87.6826Z" fill="#FFB9B9"/>
<path d="M12.2956 140.318L11.11 144.224C11.11 144.224 9.38547 148.02 11.7567 148.563C14.1279 149.105 16.3913 147.044 16.3913 147.044V144.441L17.2536 140.318H12.2956Z" fill="#2F2E41"/>
<path d="M31.6967 140.318C31.6967 140.318 31.1578 147.695 32.3434 148.129C33.529 148.563 37.7325 148.671 37.8403 148.129C37.9481 147.586 39.2415 147.044 38.2714 146.285C37.3014 145.525 36.6547 141.078 36.6547 141.078L31.6967 140.318Z" fill="#2F2E41"/>
<path d="M20.8106 70.4579V73.7123C20.8106 73.7123 17.2538 81.1974 15.9604 93.0216C14.667 104.846 10.2479 140.861 11.3257 141.512C12.4035 142.163 24.0441 142.597 24.3674 141.729C24.6908 140.861 25.0141 115.477 25.0141 115.477L29.0021 97.5777C29.0021 97.5777 29.7566 103.978 30.4033 105.063C31.05 106.148 29.3254 141.403 30.4033 141.946C31.4811 142.488 46.0318 143.464 45.8162 141.729C45.6007 139.993 40.7504 92.9131 40.7504 92.9131C40.7504 92.9131 38.2714 70.6749 37.517 70.4579C36.7625 70.241 29.8644 70.024 28.7865 70.241C27.7087 70.4579 20.8106 70.4579 20.8106 70.4579Z" fill="#2F2E41"/>
<path d="M29.002 43.5551C32.395 43.5551 35.1456 40.7867 35.1456 37.3718C35.1456 33.9568 32.395 31.1885 29.002 31.1885C25.609 31.1885 22.8584 33.9568 22.8584 37.3718C22.8584 40.7867 25.609 43.5551 29.002 43.5551Z" fill="#FFB9B9"/>
<path d="M30.2956 42.5788C30.2956 42.5788 27.1699 47.4603 27.9244 48.7621C28.6789 50.0638 19.9485 47.4603 19.9485 47.4603C19.9485 47.4603 25.2298 40.9516 25.1221 40.1922C25.0143 39.4329 30.2956 42.5788 30.2956 42.5788Z" fill="#FFB9B9"/>
<path d="M36.7625 49.8469C36.7625 49.8469 31.05 48.0027 30.2955 47.2434C29.8115 46.7458 29.3782 46.2007 29.0021 45.6162C29.0021 45.6162 22.104 44.6399 21.8885 44.6399C21.6729 44.6399 20.0562 46.5925 19.625 47.0264C19.1939 47.4603 13.697 50.3893 13.697 51.1486C13.697 51.908 12.8347 55.8132 12.8347 55.8132C12.8347 55.8132 14.7748 59.827 15.9604 60.6948C17.146 61.5626 17.4694 61.3457 17.5772 62.7559C17.6849 64.1661 19.1939 66.4442 19.1939 66.4442C19.1939 66.4442 20.1639 68.9392 19.9484 69.6986C19.7328 70.4579 18.7628 71.1088 21.0262 70.8918C23.2897 70.6749 34.4991 71.3257 34.4991 70.1325C34.4991 68.9392 32.3434 57.5489 32.3434 57.5489L36.7625 49.8469Z" fill="#BD0D22"/>
<path d="M34.7147 50.0639L36.7626 49.8469C36.7626 49.8469 37.5171 50.2808 37.6248 54.5115C37.7326 58.7422 37.7326 68.9392 38.4871 69.8071C39.2416 70.6749 42.3673 84.1263 42.3673 84.1263C42.3673 84.1263 43.2295 84.3433 43.2295 85.1026C43.2295 85.862 44.1996 86.5128 43.7685 87.3807C43.3373 88.2485 44.1996 88.0315 43.6607 88.5739C43.1218 89.1163 40.535 90.2011 40.4272 89.5502C40.3194 88.8994 40.7505 88.7909 40.3194 88.5739C39.8883 88.357 39.8883 88.2485 39.7805 87.4892C39.6727 86.7298 38.7027 85.9704 38.8104 85.645C38.9182 85.3196 34.068 75.8819 34.068 75.5564C34.068 75.231 33.7446 74.0377 33.3135 73.8208C32.8824 73.6038 32.2357 73.3869 32.559 72.8445C32.8824 72.3021 31.6968 56.0302 31.6968 56.0302L34.7147 50.0639Z" fill="#BD0D22"/>
<path d="M34.1974 33.4504C32.3134 31.3921 29.3548 30.2997 26.6417 30.9119C23.9285 31.5241 21.6438 33.9485 21.4317 36.7389C21.3883 37.3096 21.4244 37.8926 21.2777 38.4457C21.0309 39.3759 20.2964 40.1132 20.0375 41.0401C19.8641 41.6609 19.9155 42.3294 19.7317 42.9471C19.3921 44.0887 18.3409 44.833 17.5397 45.7103C17.2152 46.0318 16.9743 46.4287 16.838 46.866C16.7676 47.2537 16.7497 47.6493 16.7849 48.042C16.8187 50.1582 16.037 52.2053 14.6038 53.7541C15.4465 53.1239 16.357 52.5912 17.318 52.1659C16.8417 53.6927 17.2772 55.4991 18.4757 56.5506C19.6743 57.602 21.5941 57.7654 22.89 56.8383C23.6599 56.2875 24.1599 55.4422 24.6375 54.622L26.4458 51.5167C26.7729 50.955 27.1144 50.3769 27.637 49.9933C28.0524 49.6884 28.557 49.5262 28.975 49.2251C30.0297 48.4657 30.3128 46.9793 30.1165 45.6892C29.9201 44.3991 29.3437 43.2013 29.0131 41.9393C28.7516 40.9411 28.6695 39.7972 29.2578 38.9516C30.0386 37.8292 31.6433 37.686 32.7043 36.8274C33.1037 36.5041 33.2822 36.1108 33.5683 35.7062C33.8324 35.3326 33.8997 35.4665 34.309 35.4495C35.4327 35.4026 34.6138 33.9053 34.1974 33.4504Z" fill="#2F2E41"/>
<path d="M28.8311 40.714C29.1047 40.714 29.3265 40.1783 29.3265 39.5174C29.3265 38.8565 29.1047 38.3208 28.8311 38.3208C28.5575 38.3208 28.3357 38.8565 28.3357 39.5174C28.3357 40.1783 28.5575 40.714 28.8311 40.714Z" fill="#FFB9B9"/>
<path d="M83.4219 125.822C86.9239 125.822 89.7628 122.965 89.7628 119.44C89.7628 115.915 86.9239 113.058 83.4219 113.058C79.92 113.058 77.0811 115.915 77.0811 119.44C77.0811 122.965 79.92 125.822 83.4219 125.822Z" fill="#F2F2F2"/>
<path d="M20.0132 16.134C23.5152 16.134 26.3541 13.2768 26.3541 9.75218C26.3541 6.2276 23.5152 3.37036 20.0132 3.37036C16.5113 3.37036 13.6724 6.2276 13.6724 9.75218C13.6724 13.2768 16.5113 16.134 20.0132 16.134Z" fill="#F2F2F2"/>
<path d="M152.775 31.0915C156.277 31.0915 159.116 28.2343 159.116 24.7097C159.116 21.1851 156.277 18.3279 152.775 18.3279C149.273 18.3279 146.434 21.1851 146.434 24.7097C146.434 28.2343 149.273 31.0915 152.775 31.0915Z" fill="#F2F2F2"/>
</g>
<defs>
<clipPath id="clip0">
<rect width="193" height="151" fill="white"/>
</clipPath>
</defs>
</svg>
