<svg width="280" height="293" viewBox="0 0 280 293" fill="none" xmlns="http://www.w3.org/2000/svg">
  <path d="M181.626 118.529C172.894 118.525 164.299 116.363 156.61 112.235C139.074 102.784 104.314 87.4108 97.7937 109.372C88.9976 138.994 77.6861 140.017 66.8431 151.988C43.4168 177.818 33.3211 208.959 59.2128 219.683C106.512 239.282 102.54 235.712 118.336 249.578C150.81 278.133 195.732 262.154 192.826 233.455C188.743 193.147 178.971 186.503 222.946 168.995C257.332 155.301 249.111 110.139 208.845 116.733C199.927 118.19 189.747 118.545 181.626 118.529Z" fill="#EDF4FE" fill-opacity="0.7"/>
  <path d="M233.845 79.7492C233.707 76.3338 234.372 72.9336 235.786 69.8195C239.032 62.6863 244.23 48.6534 235.869 46.891C224.591 44.5114 224.017 40.1525 219.337 36.3608C209.236 28.1768 197.367 25.3358 193.774 35.7603C187.21 54.8025 188.481 53.1346 183.539 59.7396C173.366 73.3388 180.126 90.2183 190.863 88.0945C205.923 85.1089 208.265 81.0836 215.589 97.5461C221.317 110.395 238.167 105.636 234.982 90.235C234.338 86.7734 233.958 83.2681 233.845 79.7492Z" fill="#EDF4FE" fill-opacity="0.7"/>
  <path d="M83.5816 31.0068L88.9474 41.8539L100.956 46.8244L89.8342 51.7559L83.8103 63.954L77.792 52.2174L66.2015 46.8244L78.2103 41.8539L83.5816 31.0068Z" fill="#EDF4FE" fill-opacity="0.7"/>
  <path d="M85.3386 264.089C87.803 264.089 89.8008 262.098 89.8008 259.641C89.8008 257.185 87.803 255.193 85.3386 255.193C82.8742 255.193 80.8765 257.185 80.8765 259.641C80.8765 262.098 82.8742 264.089 85.3386 264.089Z" fill="#E2E6F0"/>
  <path d="M37.9283 167.905C40.3927 167.905 42.3905 165.914 42.3905 163.457C42.3905 161.001 40.3927 159.009 37.9283 159.009C35.464 159.009 33.4662 161.001 33.4662 163.457C33.4662 165.914 35.464 167.905 37.9283 167.905Z" fill="#E2E6F0"/>
  <path d="M163.984 102.3C165.832 102.3 167.331 100.806 167.331 98.9638C167.331 97.1214 165.832 95.6279 163.984 95.6279C162.136 95.6279 160.637 97.1214 160.637 98.9638C160.637 100.806 162.136 102.3 163.984 102.3Z" fill="#E2E6F0"/>
  <path d="M43.9801 119.079L47.2821 125.751L54.6613 128.803L47.8231 131.839L44.1195 139.339L40.4215 132.122L33.2932 128.803L40.6781 125.751L43.9801 119.079Z" fill="#6FBC9A"/>
  <path d="M137.406 243.374L139.927 248.477L145.578 250.813L140.346 253.136L137.512 258.874L134.684 253.353L129.229 250.813L134.88 248.477L137.406 243.374Z" fill="#E35760"/>
  <path d="M51.6828 78.415L35.3235 111.546L18.9641 78.415H51.6828Z" fill="#EEB969"/>
  <path d="M83.4031 72.7773L73.1904 108.271L51.2031 78.5539L83.4031 72.7773Z" fill="#EEB969"/>
  <path d="M114.94 63.9487L107.962 100.21L83.3921 72.5775L114.94 63.9487Z" fill="#EEB969"/>
  <path d="M144.033 50.1382L143.614 87.0551L114.516 64.2044L144.033 50.1382Z" fill="#EEB969"/>
  <path d="M172.908 35.916L173.042 72.8385L143.609 50.4215L172.908 35.916Z" fill="#EEB969"/>
  <path d="M198.8 16.7959L205.499 53.1123L172.54 36.2495L198.8 16.7959Z" fill="#EEB969"/>
  <path d="M95.6573 233.51C120.147 233.51 140 213.721 140 189.31C140 164.899 120.147 145.11 95.6573 145.11C71.1676 145.11 51.3147 164.899 51.3147 189.31C51.3147 213.721 71.1676 233.51 95.6573 233.51Z" fill="#6FBC9A"/>
  <path d="M116.959 181.099L112.803 176.957L93.4151 196.282L80.6087 183.512L76.4534 187.654L89.2597 200.419L93.4151 204.561L97.5705 200.419L116.959 181.099Z" fill="#E2E6F0"/>
  <path d="M168.167 166.393L166.204 178.624C166.094 179.31 165.85 179.968 165.485 180.56C165.119 181.152 164.641 181.666 164.076 182.074C163.512 182.481 162.872 182.773 162.194 182.934C161.516 183.095 160.813 183.121 160.124 183.011C159.814 182.961 159.508 182.884 159.21 182.783C157.881 182.319 156.791 181.348 156.18 180.083C155.569 178.819 155.487 177.364 155.952 176.039C156.052 175.757 156.175 175.483 156.32 175.222L162.701 163.752L187.371 114.637C188.34 113.002 189.826 111.734 191.595 111.029C193.364 110.325 195.317 110.225 197.149 110.745L199.765 111.484L195.861 122.843L168.167 166.393Z" fill="#D6C1B6"/>
  <path d="M236.243 252.175L242.016 251.874L235.635 230.669L226.516 232.487L236.243 252.175Z" fill="#D6C1B6"/>
  <path d="M178.497 256.117H184.878L188.219 235.518H178.497V256.117Z" fill="#D6C1B6"/>
  <path d="M188.615 82.0953C188.632 86.6057 190.429 90.9281 193.618 94.1284C196.806 97.3286 201.13 99.1497 205.655 99.1979C210.18 99.2461 214.541 97.5176 217.798 94.386C221.054 91.2544 222.944 86.9712 223.057 82.4623C223.057 82.34 223.057 82.2177 223.057 82.0953C223.057 77.542 221.243 73.1751 218.013 69.9553C214.783 66.7356 210.402 64.9268 205.834 64.9268C201.265 64.9268 196.885 66.7356 193.654 69.9553C190.424 73.1751 188.61 77.542 188.61 82.0953H188.615Z" fill="#E35760"/>
  <path d="M213.146 72.7332C218.047 72.7332 222.02 68.7729 222.02 63.8876C222.02 59.0023 218.047 55.042 213.146 55.042C208.245 55.042 204.272 59.0023 204.272 63.8876C204.272 68.7729 208.245 72.7332 213.146 72.7332Z" fill="#E35760"/>
  <path d="M212.22 70.6478C213.932 71.2704 215.795 71.3523 217.556 70.8824C219.317 70.4126 220.89 69.4137 222.061 68.0215C223.232 66.6294 223.945 64.9115 224.102 63.1015C224.259 61.2914 223.854 59.477 222.94 57.9048C224.465 59.6487 225.244 61.9185 225.11 64.2279C224.975 66.5372 223.939 68.7023 222.223 70.2591C220.506 71.8159 218.246 72.6406 215.927 72.5563C213.608 72.472 211.414 71.4855 209.816 69.8083C209.392 69.3425 209.018 68.8338 208.7 68.2904C209.666 69.3477 210.873 70.1564 212.22 70.6478Z" fill="#E35760"/>
  <path d="M204.478 81.106C205.785 81.1052 207.08 81.3612 208.288 81.8594C209.496 82.3575 210.593 83.088 211.518 84.0091C212.442 84.9302 213.176 86.0239 213.676 87.2276C214.177 88.4313 214.434 89.7216 214.434 91.0246C214.434 96.501 207.964 101.744 202.47 101.744C196.976 101.744 194.104 92.7648 194.104 87.2884C194.104 81.812 198.984 81.106 204.478 81.106Z" fill="#D6C1B6"/>
  <path d="M211.623 94.644C211.623 94.644 212.538 106.158 218.316 108.577L195.827 129.181L188.531 125.845L193.696 111.307C193.696 111.307 205.549 108.883 200.691 98.2801L211.623 94.644Z" fill="#D6C1B6"/>
  <path d="M173.332 237.33L189.742 238.242L197.339 181.287L217.095 237.958L236.851 231.598L217.402 166.743C212.382 148.813 216.604 129.103 223.476 108.883L215.856 106.748L198.566 109.183C196.774 109.183 195.014 109.662 193.47 110.57C191.927 111.477 190.655 112.779 189.786 114.342C185.519 121.959 182.435 129.354 184.951 135.658C174.855 161.973 172.68 197.928 173.332 237.33Z" fill="#BD0D22"/>
  <path d="M221.959 171.591L217.736 183.211C217.257 184.531 217.324 185.986 217.921 187.257C218.518 188.528 219.597 189.51 220.921 189.988C221.218 190.096 221.524 190.176 221.836 190.227C222.597 190.355 223.377 190.316 224.122 190.112C224.867 189.909 225.558 189.547 226.148 189.051C226.738 188.555 227.213 187.936 227.539 187.239C227.866 186.542 228.036 185.782 228.038 185.012V171.897L230.359 117.016C230.306 115.119 229.623 113.293 228.418 111.823C227.213 110.353 225.554 109.323 223.699 108.894L221.049 108.276L218.919 120.091L221.959 171.591Z" fill="#D6C1B6"/>
  <path d="M238.307 269.015C239.53 269.051 240.729 268.669 241.704 267.933C242.68 267.197 243.374 266.151 243.672 264.968L243.873 264.161C244.839 260.305 244.581 256.246 243.137 252.542L241.107 247.332L235.027 250.056L233.147 262.899C233.046 263.594 233.082 264.302 233.255 264.983C233.428 265.664 233.733 266.304 234.155 266.866C234.576 267.429 235.104 267.904 235.709 268.263C236.315 268.622 236.985 268.859 237.682 268.96C237.889 268.992 238.098 269.011 238.307 269.015Z" fill="#6F849C"/>
  <path d="M168.725 270.244C169.392 270.652 170.152 270.882 170.934 270.912C171.715 270.943 172.491 270.772 173.187 270.416L184.761 263.917C185.512 263.497 186.112 262.854 186.48 262.078C186.848 261.302 186.964 260.431 186.814 259.586L185.503 252.175H178.19L167.766 263.233C167.355 263.669 167.034 264.181 166.821 264.741C166.609 265.3 166.509 265.896 166.528 266.494C166.547 267.092 166.683 267.68 166.93 268.225C167.177 268.771 167.529 269.262 167.967 269.671C168.198 269.889 168.453 270.081 168.725 270.244Z" fill="#6F849C"/>
  <path d="M188.771 78.2539C191.471 82.8797 198.443 86.1766 206.62 86.1766C213.626 86.1766 219.75 83.7581 223.057 80.1554C223.057 80.072 223.057 79.983 223.057 79.8996C223.057 73.1667 215.343 67.707 205.833 67.707C197.216 67.707 189.926 72.2104 188.766 78.2706L188.771 78.2539Z" fill="#E35760"/>
  <path d="M205.817 97.5742C205.817 98.3415 204.567 100.076 203.028 100.076C201.488 100.076 200.239 98.3415 200.239 97.5742" fill="#E35760"/>
  <path d="M146.693 148.446C149.158 148.446 151.155 146.455 151.155 143.998C151.155 141.542 149.158 139.55 146.693 139.55C144.229 139.55 142.231 141.542 142.231 143.998C142.231 146.455 144.229 148.446 146.693 148.446Z" fill="#EFF1F9"/>
  <path d="M79.2032 135.103C81.6676 135.103 83.6654 133.111 83.6654 130.655C83.6654 128.198 81.6676 126.207 79.2032 126.207C76.7389 126.207 74.7411 128.198 74.7411 130.655C74.7411 133.111 76.7389 135.103 79.2032 135.103Z" fill="#E35760"/>
  <path d="M120.076 123.018C120.493 122.027 120.026 120.886 119.032 120.47C118.038 120.054 116.894 120.52 116.476 121.51L109.562 137.913C109.145 138.903 109.612 140.044 110.606 140.46C111.6 140.877 112.744 140.411 113.162 139.42L120.076 123.018Z" fill="#454947"/>
  <path d="M157.26 155.29C158.151 154.685 158.382 153.475 157.776 152.586C157.169 151.698 155.955 151.468 155.063 152.072L140.306 162.08C139.415 162.685 139.184 163.895 139.791 164.784C140.397 165.672 141.611 165.902 142.503 165.298L157.26 155.29Z" fill="#454947"/>
  <path d="M135.997 142.259C136.711 141.454 136.635 140.224 135.827 139.513C135.019 138.801 133.785 138.877 133.071 139.682L127.717 145.724C127.003 146.529 127.079 147.759 127.887 148.471C128.695 149.182 129.929 149.106 130.643 148.301L135.997 142.259Z" fill="#454947"/>
  <path d="M72.5861 257.136C72.1684 258.127 72.6357 259.267 73.6297 259.684C74.6237 260.1 75.768 259.634 76.1856 258.643L83.0994 242.241C83.517 241.25 83.0498 240.11 82.0558 239.693C81.0618 239.277 79.9174 239.743 79.4998 240.734L72.5861 257.136Z" fill="#454947"/>
  <path d="M35.4002 224.853C34.5088 225.457 34.2778 226.668 34.8843 227.556C35.4908 228.445 36.7051 228.675 37.5965 228.07L52.3534 218.063C53.2449 217.458 53.4758 216.248 52.8694 215.359C52.2629 214.471 51.0486 214.24 50.1572 214.845L35.4002 224.853Z" fill="#454947"/>
  <path d="M56.6638 237.878C55.9499 238.683 56.0262 239.913 56.8342 240.624C57.6422 241.336 58.8759 241.26 59.5898 240.454L64.9446 234.413C65.6584 233.607 65.5821 232.378 64.7741 231.666C63.9661 230.955 62.7324 231.031 62.0186 231.836L56.6638 237.878Z" fill="#454947"/>
</svg>
