<svg width="331" height="224" viewBox="0 0 331 224" fill="none" xmlns="http://www.w3.org/2000/svg">
<path d="M302.774 78.3749C302.427 78.6604 302.079 78.9334 301.723 79.2023H213.964C213.31 78.9334 212.659 78.6576 212.011 78.3749C202.747 74.3428 194.123 68.9737 186.416 62.4389C181.299 58.1032 176.591 53.6269 173.178 49.432C168.417 43.578 164.032 37.1986 161.992 29.9298C159.957 22.661 160.565 14.3289 165.112 8.30116C166.519 6.44695 168.25 4.8619 170.221 3.62213C170.547 3.41528 170.878 3.2167 171.218 3.03053C176.67 -0.0309015 183.55 -0.775579 189.689 0.808921C198.48 3.08017 205.785 9.42231 210.998 16.8608C216.21 24.2951 219.594 32.834 222.928 41.2778C226.312 26.2064 236.559 12.7071 250.401 5.84374C264.239 -1.01967 281.432 -0.936925 294.976 6.4974C299.238 8.85073 303.087 11.883 306.373 15.4749C306.7 15.8265 307.019 16.1864 307.333 16.5505C313.939 24.1999 318.072 33.9965 318.411 44.0993C318.846 57.1145 312.814 70.1877 302.774 78.3749Z" fill="#F2F2F2"/>
<path d="M217.472 79.2024H216.231C216.214 78.9252 216.194 78.6521 216.169 78.375C215.735 72.9635 214.827 67.6005 213.455 62.3479C210.307 50.3561 204.931 39.064 197.607 29.061C190.303 19.0261 181.096 10.527 170.51 4.04827C170.433 4.0039 170.366 3.94246 170.316 3.86863C170.266 3.79479 170.233 3.7105 170.221 3.62215C170.2 3.50662 170.213 3.38771 170.258 3.27929C170.303 3.17086 170.377 3.07738 170.473 3.00974C170.569 2.9421 170.682 2.90309 170.799 2.89725C170.916 2.89141 171.033 2.91899 171.135 2.97677C171.163 2.99323 171.191 3.01117 171.218 3.03054C177.215 6.68629 182.782 11.005 187.815 15.9051C196.816 24.6866 204.075 35.0924 209.206 46.5733C213.734 56.6283 216.507 67.3842 217.406 78.375C217.431 78.6521 217.451 78.9293 217.472 79.2024Z" fill="white"/>
<path d="M307.333 16.5505C307.324 16.5551 307.314 16.5579 307.304 16.5587C306.398 16.7242 305.488 16.898 304.586 17.0841C297.183 18.6046 289.936 20.8052 282.938 23.658C275.958 26.5067 269.244 29.9678 262.874 34.0006C256.496 38.0314 250.482 42.6106 244.899 47.6861C239.317 52.7543 234.196 58.3088 229.597 64.284C226.16 68.7609 223.035 73.469 220.244 78.3749C220.086 78.648 219.933 78.9252 219.78 79.2023H218.361C218.51 78.9252 218.663 78.648 218.821 78.3749C222.197 72.3637 226.069 66.6444 230.396 61.2764C235.18 55.3355 240.484 49.8322 246.244 44.8315C251.967 39.859 258.11 35.3909 264.603 31.477C271.124 27.5474 277.979 24.2026 285.089 21.4819C291.989 18.8439 299.112 16.8335 306.373 15.4748C306.576 15.4376 306.774 15.4004 306.977 15.3631C307.751 15.2225 308.082 16.3891 307.333 16.5505Z" fill="white"/>
<path d="M81.7775 81.6618C83.9844 77.4955 84.3487 72.0691 81.6045 68.2353C79.9711 65.9532 77.4205 64.4551 74.7443 63.6102C72.0681 62.7652 69.245 62.5168 66.4461 62.3115C63.6755 62.1082 60.8556 61.9455 58.1491 62.5722C55.4426 63.1989 52.8211 64.7298 51.5026 67.1752C49.2754 71.3062 51.3043 76.6033 49.6684 81.0023C48.1671 85.0391 43.8945 87.3992 39.6943 88.3516C35.4941 89.3041 31.1102 89.2027 26.9079 90.1459C22.7057 91.0891 18.4259 93.4272 16.898 97.4541C15.7931 100.366 16.3421 103.72 17.7979 106.474C19.2538 109.227 21.5339 111.456 23.9541 113.416C27.5647 116.34 31.7888 118.845 36.428 119.098C41.3163 119.365 46.0959 117.038 49.6142 113.634C53.1325 110.23 55.5278 105.83 57.4415 101.324C58.6555 98.4655 59.8025 95.389 62.2354 93.4585C64.0231 92.04 66.2969 91.4186 68.502 90.8308L70.9989 90.1652C73.2615 89.5732 75.379 88.5245 77.2213 87.0835C79.0635 85.6426 80.5914 83.8399 81.711 81.7865C81.7333 81.745 81.7554 81.7035 81.7775 81.6618Z" fill="#2F2E41"/>
<path d="M62.0857 218.713H57.0143L54.6013 199.149H62.087L62.0857 218.713Z" fill="#FFB8B8"/>
<path d="M53.3914 217.263H63.1726V223.422H47.2329C47.2329 222.613 47.3922 221.812 47.7017 221.065C48.0112 220.318 48.4649 219.639 49.0367 219.067C49.6086 218.495 50.2875 218.042 51.0347 217.732C51.7819 217.423 52.5827 217.263 53.3914 217.263Z" fill="#2F2E41"/>
<path d="M104.282 218.713H99.2104L96.7974 199.149H104.283L104.282 218.713Z" fill="#FFB8B8"/>
<path d="M95.5875 217.263H105.369V223.422H89.429C89.429 222.613 89.5883 221.812 89.8978 221.065C90.2073 220.318 90.6609 219.639 91.2328 219.067C91.8047 218.495 92.4836 218.042 93.2308 217.732C93.9779 217.423 94.7788 217.263 95.5875 217.263Z" fill="#2F2E41"/>
<path d="M71.835 203.164C71.7643 203.163 71.6936 203.16 71.6232 203.152L50.9896 200.941C50.7156 200.912 50.4509 200.824 50.2133 200.685C49.9757 200.545 49.7705 200.357 49.6115 200.131C49.4524 199.906 49.3432 199.65 49.291 199.379C49.2388 199.109 49.2448 198.83 49.3087 198.562L67.5781 129.071C67.6637 128.718 67.8463 128.395 68.1055 128.14C68.3646 127.885 68.69 127.707 69.0448 127.627L85.9927 122.902C86.3325 122.827 86.6861 122.845 87.0169 122.953C87.3478 123.06 87.6438 123.255 87.8744 123.515C98.7711 135.806 106.983 163.054 113.203 197.397C113.25 197.656 113.244 197.922 113.185 198.179C113.125 198.436 113.015 198.678 112.859 198.89C112.703 199.102 112.506 199.281 112.279 199.415C112.052 199.549 111.801 199.635 111.539 199.668L94.633 201.827C94.1535 201.889 93.668 201.77 93.2721 201.492C92.8762 201.214 92.5986 200.799 92.4939 200.326L84.2683 163.652C84.1926 163.314 84.0033 163.013 83.7321 162.798C83.4608 162.584 83.124 162.469 82.7781 162.473C82.4323 162.477 82.0982 162.6 81.832 162.82C81.5657 163.041 81.3834 163.347 81.3156 163.686L73.7326 201.603C73.6467 202.043 73.4104 202.439 73.0642 202.724C72.7179 203.009 72.2833 203.164 71.835 203.164Z" fill="#2F2E41"/>
<path d="M68.6964 91.204C74.308 91.204 78.857 86.6547 78.857 81.0429C78.857 75.4311 74.308 70.8818 68.6964 70.8818C63.0849 70.8818 58.5359 75.4311 58.5359 81.0429C58.5359 86.6547 63.0849 91.204 68.6964 91.204Z" fill="#FFB8B8"/>
<path d="M68.4127 129.267C67.9856 129.266 67.5705 129.125 67.2322 128.864C66.8939 128.603 66.6514 128.238 66.5423 127.825L60.4298 104.86C59.9886 103.21 60.1712 101.455 60.9429 99.9312C61.7145 98.4074 63.021 97.2216 64.6121 96.6007C69.5325 94.6799 74.2203 93.9674 78.5453 94.482C82.3892 94.9402 87.1312 117.699 86.8174 118.184L88.3344 122.735C88.4204 122.993 88.4512 123.266 88.4248 123.537C88.3984 123.808 88.3153 124.07 88.1811 124.306C88.0468 124.543 87.8643 124.749 87.6454 124.91C87.4265 125.072 87.1761 125.185 86.9104 125.244L68.8343 129.22C68.6959 129.251 68.5545 129.267 68.4127 129.267Z" fill="#CCCCCC"/>
<path d="M73.8908 152.752C73.9779 152.3 73.9648 151.834 73.8525 151.388C73.7402 150.941 73.5314 150.525 73.2408 150.168C72.9502 149.811 72.5848 149.522 72.1705 149.322C71.7562 149.121 71.303 149.014 70.8427 149.008L67.3211 138.388L63.7217 142.954L67.6178 152.339C67.6584 153.113 67.9814 153.845 68.5257 154.396C69.07 154.948 69.7977 155.281 70.5709 155.332C71.3442 155.383 72.1092 155.148 72.7211 154.673C73.333 154.197 73.7492 153.514 73.8908 152.752Z" fill="#FFB8B8"/>
<path d="M119.168 127.229C118.957 126.82 118.659 126.462 118.295 126.18C117.931 125.899 117.509 125.701 117.06 125.6C116.611 125.499 116.145 125.497 115.696 125.596C115.246 125.694 114.824 125.89 114.458 126.169L105.127 119.996L105.118 125.81L113.981 130.781C114.491 131.364 115.197 131.74 115.966 131.838C116.735 131.935 117.512 131.747 118.152 131.309C118.791 130.871 119.248 130.214 119.435 129.462C119.622 128.71 119.527 127.916 119.168 127.229H119.168Z" fill="#FFB8B8"/>
<path d="M66.5074 147.845C66.0993 147.845 65.7016 147.717 65.3708 147.478C65.04 147.239 64.793 146.901 64.6649 146.514L56.409 129.049C56.0704 128.025 55.898 126.954 55.8982 125.876L58.3803 103.175C58.3802 101.904 58.8652 100.681 59.7363 99.7556C60.6073 98.8301 61.7988 98.2719 63.0674 98.1951C64.3359 98.1182 65.586 98.5285 66.5624 99.3421C67.5388 100.156 68.1679 101.311 68.3212 102.573L64.5237 128.484L70.5837 144.387C70.6796 144.81 70.6306 145.253 70.4447 145.645C70.2588 146.037 69.9467 146.355 69.5584 146.549L67.375 147.64C67.1056 147.775 66.8086 147.845 66.5074 147.845Z" fill="#CCCCCC"/>
<path d="M110.6 129.522C110.296 129.522 109.996 129.451 109.725 129.314L93.3066 121.02C92.3441 120.534 91.4657 119.897 90.7049 119.133L74.6799 103.056C73.7828 102.156 73.2629 100.947 73.2266 99.6765C73.1903 98.4061 73.6401 97.1697 74.4844 96.2197C75.3287 95.2697 76.5036 94.6778 77.7695 94.5648C79.0353 94.4518 80.2966 94.8262 81.2958 95.6115L98.6551 114.891L112.416 123.629C112.782 123.861 113.06 124.209 113.205 124.618C113.35 125.027 113.354 125.473 113.215 125.884L112.44 128.199C112.31 128.584 112.063 128.919 111.733 129.157C111.403 129.394 111.006 129.522 110.6 129.522L110.6 129.522Z" fill="#CCCCCC"/>
<path d="M57.1393 75.7895C58.8652 78.0474 61.3462 79.6087 64.1286 80.1877C66.9488 80.7705 69.884 80.3499 72.4272 78.9987C74.4735 77.8929 76.111 76.2334 77.7149 74.5996C78.3843 73.9177 79.0972 73.1313 79.0635 72.2011C79.0114 70.7599 77.2788 69.9719 75.7918 69.6576C70.9109 68.6393 65.8321 69.2105 61.2993 71.2875C59.2805 72.2253 57.1771 73.922 57.4802 76.031" fill="#2F2E41"/>
<path d="M323.967 78.3749H124.57C122.706 78.3776 120.919 79.1194 119.6 80.4378C118.282 81.7562 117.54 83.5435 117.538 85.408V162.358C117.54 164.222 118.282 166.009 119.6 167.328C120.919 168.646 122.706 169.388 124.57 169.391H323.967C325.832 169.388 327.619 168.646 328.937 167.328C330.256 166.009 330.997 164.222 331 162.358V85.408C330.997 83.5435 330.256 81.7562 328.937 80.4378C327.619 79.1194 325.832 78.3776 323.967 78.3749ZM330.173 162.358C330.171 164.003 329.516 165.58 328.353 166.743C327.19 167.907 325.612 168.561 323.967 168.563H124.57C122.925 168.561 121.348 167.907 120.185 166.743C119.021 165.58 118.367 164.003 118.365 162.358V85.408C118.367 83.7628 119.021 82.1855 120.185 81.0221C121.348 79.8588 122.925 79.2044 124.57 79.2024H323.967C325.612 79.2044 327.19 79.8588 328.353 81.0221C329.516 82.1855 330.171 83.7628 330.173 85.408V162.358Z" fill="#3F3D56"/>
<path d="M160.774 147.878C156.028 147.878 151.389 146.471 147.443 143.834C143.497 141.197 140.422 137.45 138.606 133.065C136.79 128.681 136.315 123.856 137.241 119.202C138.167 114.547 140.452 110.272 143.807 106.916C147.163 103.56 151.438 101.275 156.093 100.349C160.747 99.423 165.571 99.8982 169.956 101.714C174.34 103.53 178.087 106.606 180.724 110.552C183.36 114.498 184.767 119.137 184.767 123.883C184.76 130.244 182.23 136.344 177.732 140.842C173.234 145.34 167.135 147.871 160.774 147.878ZM160.774 100.715C156.192 100.715 151.713 102.074 147.903 104.62C144.093 107.165 141.124 110.784 139.37 115.017C137.617 119.25 137.158 123.909 138.052 128.403C138.946 132.897 141.152 137.025 144.392 140.265C147.632 143.505 151.76 145.711 156.254 146.605C160.748 147.499 165.406 147.04 169.639 145.287C173.872 143.533 177.49 140.564 180.036 136.754C182.581 132.944 183.94 128.465 183.94 123.883C183.933 117.741 181.49 111.852 177.147 107.509C172.804 103.165 166.916 100.722 160.774 100.715Z" fill="#3F3D56"/>
<path d="M306.173 108.576H210.611C209.276 108.576 207.992 109.094 207.03 110.02C206.067 110.947 205.501 112.209 205.449 113.544C205.442 113.612 205.439 113.679 205.44 113.747C205.442 115.118 205.988 116.432 206.957 117.401C207.926 118.371 209.241 118.916 210.611 118.918H306.173C307.544 118.918 308.86 118.373 309.83 117.404C310.799 116.434 311.344 115.118 311.344 113.747C311.344 112.375 310.799 111.06 309.83 110.09C308.86 109.12 307.544 108.576 306.173 108.576Z" fill="#EEB969"/>
<path d="M306.173 128.847H210.611C209.276 128.848 207.992 129.366 207.03 130.292C206.067 131.218 205.501 132.481 205.449 133.816C205.442 133.883 205.439 133.951 205.44 134.019C205.442 135.39 205.988 136.704 206.957 137.673C207.926 138.643 209.241 139.188 210.611 139.19H306.173C307.544 139.19 308.86 138.645 309.83 137.675C310.799 136.705 311.344 135.39 311.344 134.019C311.344 132.647 310.799 131.332 309.83 130.362C308.86 129.392 307.544 128.847 306.173 128.847Z" fill="#EEB969"/>
<path d="M158.097 134.367C157.427 134.368 156.775 134.152 156.24 133.75L156.207 133.725L149.214 128.371C148.89 128.123 148.618 127.813 148.414 127.46C148.209 127.107 148.077 126.717 148.023 126.312C147.97 125.908 147.996 125.497 148.102 125.102C148.207 124.708 148.389 124.339 148.637 124.015C148.885 123.691 149.195 123.419 149.548 123.215C149.901 123.011 150.291 122.878 150.695 122.824C151.1 122.771 151.511 122.797 151.905 122.903C152.299 123.008 152.669 123.19 152.993 123.438L157.522 126.912L168.226 112.951C168.474 112.628 168.784 112.356 169.137 112.152C169.491 111.948 169.881 111.815 170.285 111.762C170.69 111.708 171.101 111.735 171.495 111.84C171.889 111.946 172.258 112.128 172.582 112.376L172.516 112.467L172.584 112.378C173.237 112.88 173.664 113.62 173.772 114.437C173.88 115.253 173.659 116.08 173.159 116.734L160.568 133.154C160.277 133.533 159.903 133.839 159.474 134.049C159.045 134.259 158.574 134.368 158.097 134.367Z" fill="#6FBC9A"/>
<path d="M158.028 224H0.413717C0.304001 224 0.198778 223.956 0.121196 223.879C0.043615 223.801 3.05176e-05 223.696 3.05176e-05 223.586C3.05176e-05 223.477 0.043615 223.371 0.121196 223.294C0.198778 223.216 0.304001 223.173 0.413717 223.173H158.028C158.138 223.173 158.243 223.216 158.321 223.294C158.399 223.371 158.442 223.477 158.442 223.586C158.442 223.696 158.399 223.801 158.321 223.879C158.243 223.956 158.138 224 158.028 224Z" fill="#3F3D56"/>
<path d="M282.655 59.7372C274.013 58.5485 265.236 58.7463 256.657 60.3234C248.102 61.8874 239.843 64.775 232.178 68.8824C227.87 71.1973 223.781 73.8988 219.962 76.9535C219.338 77.4519 220.221 78.325 220.839 77.8311C227.541 72.5 235.053 68.2769 243.09 65.3224C251.064 62.3731 259.446 60.6727 267.938 60.2813C272.744 60.0606 277.559 60.2791 282.325 60.934C282.483 60.9719 282.65 60.9483 282.792 60.8678C282.934 60.7874 283.04 60.6561 283.088 60.5006C283.131 60.3419 283.109 60.1728 283.028 60.0298C282.947 59.8869 282.813 59.7818 282.655 59.7372H282.655Z" fill="white"/>
</svg>
