<svg width="19" height="17" viewBox="0 0 19 17" fill="none" xmlns="http://www.w3.org/2000/svg">
<path fill-rule="evenodd" clip-rule="evenodd" d="M14.554 16.0335C14.8089 16.214 15.1374 16.2591 15.4303 16.1483C15.7232 16.0367 15.9386 15.7865 16.0035 15.4833C16.6915 12.2501 18.3603 4.06666 18.9865 1.12562C19.034 0.903951 18.9548 0.673576 18.7807 0.525534C18.6065 0.377492 18.365 0.334742 18.1497 0.414701C14.8302 1.64337 4.60745 5.47899 0.429032 7.02512C0.163824 7.12328 -0.00875958 7.3782 -5.12434e-05 7.65766C0.00944876 7.93791 0.197865 8.18095 0.469407 8.26249C2.34328 8.82299 4.80299 9.60278 4.80299 9.60278C4.80299 9.60278 5.95249 13.0742 6.55178 14.8397C6.62699 15.0613 6.80037 15.2355 7.02916 15.2957C7.25716 15.355 7.50099 15.2925 7.6712 15.1318C8.63387 14.2229 10.1222 12.8177 10.1222 12.8177C10.1222 12.8177 12.95 14.8911 14.554 16.0335ZM5.8377 9.1642L7.16691 13.5484L7.4622 10.7721C7.4622 10.7721 12.5977 6.14003 15.5253 3.49983C15.6108 3.42224 15.6227 3.29241 15.5514 3.20137C15.481 3.11033 15.3512 3.08895 15.2538 3.1507C11.8607 5.31749 5.8377 9.1642 5.8377 9.1642Z" fill="white"/>
</svg>
